# vtk DataFile Version 4.2
3D Slicer output. SPACE=LPS
ASCII
DATASET POLYDATA
FIELD FieldData 2
MaterialNames 1 2 string
mtl1
NO_MATERIAL

MaterialLibraries 1 1 string
HICE_vtkMRMLModelNodeBG.mtl

POINTS 1563 float
-73.5157 110.568 1598.66 -73.5165 110.566 1598.66 -73.614 110.272 1598.73 
-73.6191 110.262 1598.73 -73.6762 110.165 1598.72 -73.7518 110.029 1598.72 
-73.9665 109.021 1598.83 -73.9998 108.541 1598.96 -74.047 108.315 1599.04 
-74.1297 108.039 1599.09 -74.1477 107.994 1599.09 -74.1555 107.957 1599.1 
-74.2353 107.555 1599.3 -74.2004 106.523 1599.71 -74.1757 106.332 1599.78 
-74.0718 106.06 1599.91 -74.0177 105.735 1600.06 -73.9682 105.528 1600.23 
-73.9185 105.361 1600.36 -73.8577 105.209 1600.47 -73.8083 105.111 1600.55 
-73.7968 105.069 1600.59 -73.7722 104.993 1600.68 -73.7329 104.876 1600.79 
-73.7027 104.697 1600.94 -73.5856 104.112 1601.28 -73.3871 103.599 1601.56 
-73.1738 102.723 1602.18 -73.1712 102.716 1602.19 -73.0094 102.317 1602.47 
-72.9862 102.278 1602.5 -72.7654 101.902 1602.71 -72.6537 101.679 1602.89 
-72.6527 101.675 1602.89 -72.4185 100.764 1603.4 -72.1034 100.241 1603.84 
-71.751 99.6086 1604.23 -71.7143 99.5526 1604.26 -70.7769 98.7534 1604.88 
-70.1824 98.1436 1605.21 -69.6755 97.7948 1605.42 -69.0902 97.5544 1605.69 
-67.9004 96.9656 1606.13 -67.3972 96.645 1606.3 -67.3897 96.6416 1606.31 
-67.1389 96.5596 1606.33 -66.0228 96.1533 1606.62 -66.0223 96.153 1606.62 
-65.887 96.0895 1606.67 -64.7491 95.7207 1606.95 -63.4684 95.0595 1607.4 
-63.4029 95.0407 1607.41 -62.8582 94.9509 1607.54 -62.1718 94.7841 1607.64 
-60.7325 94.2644 1607.84 -60.0262 94.0174 1607.83 -59.5738 93.8769 1607.82 
-59.1639 93.7139 1607.85 -59.067 93.6854 1607.86 -58.5687 93.5073 1607.93 
-57.9281 93.369 1607.96 -56.7053 92.9654 1607.85 -54.9635 92.6399 1607.8 
-53.5765 92.2169 1607.84 -53.3844 92.1494 1607.85 -52.5263 91.8305 1608.01 
-52.4203 91.7742 1608.03 -52.0762 91.5979 1608.05 -51.174 91.3463 1608 
-51.1713 91.3452 1608 -50.8414 91.2093 1607.95 -49.1089 90.4804 1607.93 
-47.4508 89.2601 1608.42 -46.3587 87.5448 1609.02 -45.6402 86.129 1609.7 
-45.6278 86.0898 1609.72 -45.3986 84.7505 1610.4 -45.3156 84.3349 1610.67 
-45.4025 83.521 1611.54 -45.402 83.5017 1611.56 -45.459 82.8636 1612.18 
-45.514 82.6793 1612.35 -45.6007 82.3326 1612.57 -45.6581 81.7873 1613.02 
-45.7239 81.4424 1613.33 -45.9605 80.1329 1614.54 -46.1142 79.9319 1614.83 
-46.133 79.8993 1614.87 -46.5395 78.5829 1616.4 -46.5917 78.1905 1616.75 
-46.8306 77.6749 1617.39 -46.9792 77.0663 1617.99 -47.0359 76.6375 1618.46 
-47.0329 76.4907 1618.6 -47.0449 76.4037 1618.69 -47.0839 75.1911 1619.54 
-47.1586 74.6387 1619.84 -47.1497 74.3711 1619.97 -47.152 74.359 1619.97 
-47.236 74.032 1620.19 -47.4618 72.5729 1620.96 -47.4819 72.4647 1621.03 
-47.89 71.0502 1621.38 -47.9333 70.4673 1621.47 -48.0775 69.7763 1621.54 
-48.5751 68.2516 1621.81 -48.6928 67.7067 1621.88 -48.7152 67.5741 1621.9 
-48.7198 67.5499 1621.9 -48.8377 66.8512 1622.08 -48.8392 66.847 1622.08 
-49.0301 65.5897 1622.23 -49.0527 65.5335 1622.24 -49.5206 64.2739 1622.27 
-49.692 64.0382 1622.27 -49.8486 63.7357 1622.23 -49.8494 63.7345 1622.23 
-50.4998 62.7115 1622.39 -51.1267 61.5136 1622.19 -51.4789 60.9938 1622.19 
-52.0305 59.7505 1621.84 -52.5135 58.9423 1621.49 -52.9406 57.7246 1620.7 
-53.2133 57.0849 1620.6 -53.4032 56.5946 1620.27 -53.8296 56.3344 1619.81 
-53.8498 56.275 1619.79 -53.8499 56.2749 1619.79 -53.8593 56.2693 1619.78 
-96.308 107.095 1618.12 -96.2149 106.956 1618.03 -95.67 106.006 1617.45 
-95.6554 105.966 1617.44 -95.5384 105.726 1617.36 -95.4284 105.468 1617.27 
-95.21 105.133 1617.07 -94.9173 104.71 1616.67 -94.8198 104.568 1616.47 
-94.608 104.335 1616.14 -94.4975 104.109 1615.94 -94.4702 104.071 1615.9 
-94.2659 103.691 1615.56 -94.1229 103.444 1615.39 -93.9756 103.051 1615.07 
-93.8738 102.858 1614.95 -93.6555 102.623 1614.72 -93.5285 102.448 1614.55 
-93.411 102.24 1614.25 -93.3823 102.184 1614.2 -92.5993 101.522 1613.56 
-92.4414 101.371 1613.46 -91.6414 100.882 1613.03 -91.5673 100.796 1612.96 
-91.5613 100.79 1612.96 -90.9122 100.445 1612.67 -90.9112 100.445 1612.67 
-90.6741 100.322 1612.6 -90.6648 100.316 1612.6 -90.4888 100.218 1612.53 
-90.1103 100.027 1612.38 -89.0139 100.001 1612.19 -88.6228 99.8967 1612.04 
-88.3706 99.8432 1611.9 -88.3617 99.8418 1611.9 -87.9982 99.7831 1611.7 
-87.7097 99.7919 1611.59 -86.89 99.7042 1611.2 -85.9267 99.4778 1610.67 
-85.8417 99.473 1610.61 -85.6394 99.4524 1610.52 -85.5567 99.4525 1610.48 
-85.3648 99.3903 1610.33 -84.2085 99.2095 1609.64 -83.7637 99.0896 1609.35 
-82.8287 99.0525 1608.9 -81.7355 99.005 1608.53 -80.9231 98.9649 1608.32 
-80.923 98.9649 1608.32 -80.8992 98.9704 1608.3 -79.8392 98.9912 1607.81 
-78.7169 99.0181 1607.37 -78.6654 99.0155 1607.35 -77.9354 98.9461 1607.13 
-77.4565 98.9619 1606.95 -77.1298 98.9843 1606.87 -75.6875 98.9124 1606.8 
-75.3651 98.8695 1606.79 -74.6847 98.7382 1606.72 -73.6146 98.3388 1606.56 
-72.9528 98.1872 1606.55 -72.2468 98.1626 1606.42 -71.3963 97.873 1606.22 
-70.8774 97.7487 1606.13 -70.8392 97.7406 1606.13 -70.7691 97.731 1606.13 
-70.7048 97.7209 1606.13 -69.6676 97.4207 1606.06 -69.4166 97.3419 1606.09 
-68.4881 97.0727 1606.29 -67.924 96.8748 1606.33 -67.7594 96.7959 1606.34 
-67.1244 96.5576 1606.34 -66.0228 96.1533 1606.62 -66.0223 96.153 1606.62 
-65.887 96.0895 1606.67 -64.7491 95.7207 1606.95 -63.4684 95.0595 1607.4 
-63.4029 95.0407 1607.41 -62.8582 94.9509 1607.54 -62.1718 94.7841 1607.64 
-60.7325 94.2644 1607.84 -60.0262 94.0174 1607.83 -59.5738 93.8769 1607.82 
-59.1639 93.7139 1607.85 -59.067 93.6854 1607.86 -58.5687 93.5073 1607.93 
-57.9281 93.369 1607.96 -56.7053 92.9654 1607.85 -54.9635 92.6399 1607.8 
-53.5765 92.2169 1607.84 -53.3844 92.1494 1607.85 -52.5263 91.8305 1608.01 
-52.4203 91.7742 1608.03 -52.0762 91.5979 1608.05 -51.174 91.3463 1608 
-51.1713 91.3452 1608 -50.8414 91.2093 1607.95 -49.1089 90.4804 1607.93 
-47.4508 89.2601 1608.42 -46.3587 87.5448 1609.02 -45.6402 86.129 1609.7 
-45.6278 86.0898 1609.72 -45.3986 84.7505 1610.4 -45.3156 84.3349 1610.67 
-45.4025 83.521 1611.54 -45.402 83.5017 1611.56 -45.459 82.8636 1612.18 
-45.514 82.6793 1612.35 -45.6007 82.3326 1612.57 -45.6581 81.7873 1613.02 
-45.7239 81.4424 1613.33 -45.9605 80.1329 1614.54 -46.1142 79.9319 1614.83 
-46.133 79.8993 1614.87 -46.5395 78.5829 1616.4 -46.5917 78.1905 1616.75 
-46.8306 77.6749 1617.39 -46.9792 77.0663 1617.99 -47.0359 76.6375 1618.46 
-47.0329 76.4907 1618.6 -47.0449 76.4037 1618.69 -47.0839 75.1911 1619.54 
-47.1586 74.6387 1619.84 -47.1497 74.3711 1619.97 -47.152 74.359 1619.97 
-47.236 74.032 1620.19 -47.4618 72.5729 1620.96 -47.4819 72.4647 1621.03 
-47.89 71.0502 1621.38 -47.9333 70.4673 1621.47 -48.0775 69.7763 1621.54 
-48.5751 68.2516 1621.81 -48.6928 67.7067 1621.88 -48.7152 67.5741 1621.9 
-48.7198 67.5499 1621.9 -48.8377 66.8512 1622.08 -48.8392 66.847 1622.08 
-49.0301 65.5897 1622.23 -49.0527 65.5335 1622.24 -49.5206 64.2739 1622.27 
-49.692 64.0382 1622.27 -49.8486 63.7357 1622.23 -49.8494 63.7345 1622.23 
-50.4998 62.7115 1622.39 -51.1267 61.5136 1622.19 -51.4789 60.9938 1622.19 
-52.0305 59.7505 1621.84 -52.5135 58.9423 1621.49 -52.9406 57.7246 1620.7 
-53.2133 57.0849 1620.6 -53.4032 56.5946 1620.27 -53.8296 56.3344 1619.81 
-53.8498 56.275 1619.79 -53.8499 56.2749 1619.79 -53.8593 56.2693 1619.78 
-91.4782 70.7466 1620.31 -91.1403 71.0344 1620.31 -90.9617 71.1011 1620.3 
-90.0005 71.6 1620.21 -89.9799 71.6037 1620.21 -89.1038 72.1144 1620.24 
-88.1573 72.8373 1620.45 -87.5511 73.055 1620.59 -87.4749 73.0898 1620.6 
-87.3537 73.1311 1620.62 -86.5599 73.7085 1620.74 -86.4418 73.83 1620.75 
-86.0766 74.2135 1620.83 -85.8566 74.5283 1620.87 -85.2108 75.2976 1621.13 
-85.1767 75.333 1621.14 -85.03 75.5335 1621.16 -84.5662 76.0192 1621.33 
-83.767 76.791 1621.84 -83.604 76.9391 1621.84 -83.2796 77.1527 1621.91 
-82.5807 77.4387 1622.06 -82.5511 77.4584 1622.07 -81.3516 78.2999 1622.78 
-81.2615 78.3595 1622.81 -80.4446 79.0305 1623.56 -80.2233 79.136 1623.64 
-79.748 79.2624 1623.8 -79.7251 79.2726 1623.81 -78.9096 79.9758 1624.06 
-77.5458 80.6811 1624.5 -77.2383 81.0059 1624.74 -76.8992 81.2333 1624.97 
-76.0066 81.6812 1625.4 -75.9859 81.6958 1625.41 -75.5174 82.1566 1625.92 
-75.1106 82.3458 1626.17 -74.9687 82.4518 1626.25 -74.8811 82.505 1626.3 
-74.3396 82.8099 1626.54 -74.3149 82.8198 1626.56 -73.8305 83.1124 1626.89 
-73.0966 83.5302 1627.27 -72.9941 83.5743 1627.33 -72.1233 84.0618 1627.74 
-71.7372 84.2849 1627.93 -71.3078 84.5875 1628.24 -71.1002 84.7764 1628.32 
-71.0995 84.7769 1628.32 -70.9243 84.8915 1628.41 -70.9197 84.8945 1628.41 
-70.7696 85.0083 1628.51 -70.4304 85.2117 1628.72 -69.7521 85.6535 1629.31 
-69.3008 86.1247 1629.68 -69.1987 86.2029 1629.75 -69.14 86.2303 1629.81 
-67.9801 86.7931 1630.46 -67.666 86.9956 1630.65 -67.3621 87.1157 1630.83 
-66.2195 87.6183 1631.54 -66.2132 87.6198 1631.54 -65.9592 87.6831 1631.63 
-65.8723 87.7088 1631.66 -65.3487 87.8617 1631.81 -65.2949 87.8746 1631.83 
-64.8987 88.0122 1632.05 -64.8119 88.0609 1632.09 -64.572 88.1012 1632.21 
-63.9403 88.2922 1632.52 -62.6517 88.8415 1633.01 -62.5813 88.8487 1633.04 
-61.1946 89.3445 1633.53 -61.0044 89.415 1633.61 -60.6332 89.4912 1633.75 
-60.2121 89.6135 1634.02 -59.9419 89.5803 1634.12 -59.9407 89.5804 1634.12 
-59.8832 89.5893 1634.13 -58.0658 88.7272 1634.65 -57.4771 88.4955 1634.63 
-57.23 88.2927 1634.65 -56.6688 87.811 1634.77 -55.6574 86.6494 1634.57 
-55.3084 86.2543 1634.58 -55.2927 86.2407 1634.59 -55.2841 86.2274 1634.58 
-55.0613 85.662 1634.36 -54.6576 84.5449 1634.04 -54.6178 84.195 1633.83 
-54.7578 83.7623 1633.54 -55.1455 82.4217 1632.97 -55.3484 82.1162 1632.8 
-55.3801 82.065 1632.77 -55.5995 81.5437 1632.54 -55.6737 81.2043 1632.35 
-55.7386 81.001 1632.21 -55.742 80.9959 1632.2 -56.1649 80.3705 1631.84 
-56.268 80.1331 1631.72 -56.6071 79.0962 1631.26 -57.0847 78.2783 1631.06 
-57.1896 77.8647 1630.96 -57.1945 77.8508 1630.95 -57.322 76.9549 1630.74 
-57.2947 76.5865 1630.66 -57.2998 76.4868 1630.64 -57.3132 76.318 1630.61 
-57.3131 76.2956 1630.61 -57.2734 76.0193 1630.58 -56.9305 75.2343 1630.51 
-56.9096 75.1895 1630.5 -56.8169 75.0451 1630.49 -56.6141 74.6465 1630.53 
-56.5069 74.4263 1630.53 -56.4926 74.3939 1630.54 -56.1166 73.6446 1630.47 
-55.9258 73.4014 1630.45 -55.5271 72.2607 1630.48 -55.5257 72.2561 1630.48 
-55.3999 71.7428 1630.39 -55.2366 71.2672 1630.36 -55.2178 71.1515 1630.4 
-54.9037 70.1755 1630.51 -54.7553 69.6959 1630.52 -54.6517 69.2517 1630.52 
-54.6448 69.2408 1630.52 -54.4636 68.9099 1630.51 -54.2203 68.2495 1630.49 
-54.2189 68.2464 1630.49 -54.0113 67.6839 1630.51 -53.8608 67.1769 1630.5 
-53.3108 65.9815 1630.56 -53.2772 65.8903 1630.56 -52.9943 65.4655 1630.52 
-52.5068 64.7236 1630.39 -52.3564 64.5608 1630.37 -52.3367 64.5301 1630.36 
-52.128 64.2822 1630.19 -51.2397 63.4311 1629.66 -51.0867 63.3085 1629.55 
-50.5983 62.7606 1629.02 -50.1728 62.3135 1628.07 -50.2349 62.0485 1627.74 
-50.29 61.6956 1626.57 -50.2932 61.6729 1626.52 -50.5696 61.3246 1625.51 
-50.6014 61.1845 1625.21 -50.661 61.0247 1624.67 -50.7761 60.8806 1624.43 
-50.949 60.5616 1623.88 -51.003 60.0399 1623.3 -51.0537 59.9224 1623.15 
-51.1268 59.6763 1622.83 -51.7525 58.8063 1622.26 -51.8672 58.583 1622.19 
-52.5216 57.2487 1621.49 -52.5781 57.2033 1621.38 -53.3147 56.6341 1620.47 
-53.3822 56.5589 1620.31 -53.8087 56.3297 1619.84 -53.8498 56.275 1619.79 
-53.8499 56.2749 1619.79 -53.8593 56.2693 1619.78 -7.43751 80.1941 1646.3 
-7.34542 80.2484 1646.34 -7.24466 80.2876 1646.37 -7.07462 80.503 1646.52 
-6.76974 81.2259 1646.69 -6.75009 82.6543 1647.41 -6.87381 83.1442 1647.49 
-7.18349 84.1518 1647.98 -7.46437 85.0859 1648.11 -7.67923 85.4044 1648.19 
-7.69568 85.4801 1648.22 -7.91994 85.9819 1648.48 -7.99888 86.1019 1648.51 
-8.07717 86.174 1648.54 -8.08164 86.178 1648.54 -8.13139 86.2196 1648.54 
-8.34566 86.3788 1648.57 -8.43171 86.4457 1648.57 -8.79215 86.7878 1648.46 
-9.16878 87.156 1648.47 -9.17008 87.1578 1648.47 -9.49289 87.5867 1648.43 
-10.0074 88.3306 1648.2 -10.154 88.5163 1648.22 -10.4394 89.1471 1648.36 
-10.517 89.2629 1648.45 -11.2178 90.3374 1648.83 -11.5463 90.8875 1649.25 
-12.254 91.9651 1649.89 -12.5009 92.429 1650.32 -12.7495 92.8722 1650.68 
-12.8647 93.132 1650.99 -13.1311 93.5476 1651.26 -13.3225 93.7817 1651.45 
-13.4931 94.0718 1651.61 -13.689 94.5506 1651.86 -13.7275 94.619 1651.91 
-13.9301 94.9913 1652.23 -14.0206 95.1419 1652.3 -14.0943 95.311 1652.36 
-14.417 95.876 1652.54 -14.7042 96.4542 1652.77 -14.9217 96.8121 1652.86 
-14.9267 96.8196 1652.86 -15.3409 97.4391 1653.19 -15.3413 97.4398 1653.19 
-15.3864 97.5295 1653.22 -15.4405 97.6171 1653.27 -15.478 97.6679 1653.31 
-15.5751 97.7913 1653.4 -15.935 98.3789 1653.88 -15.9354 98.3793 1653.88 
-15.9825 98.4288 1653.93 -15.9842 98.4307 1653.93 -16.0875 98.5503 1654.05 
-16.0883 98.5516 1654.05 -16.1601 98.656 1654.17 -16.637 99.1596 1654.77 
-16.6666 99.1838 1654.82 -16.7473 99.2905 1654.99 -16.7839 99.3276 1655.07 
-17.1423 99.6372 1655.73 -17.2083 99.7118 1655.89 -17.4622 100.02 1656.36 
-17.7557 100.221 1656.77 -17.7597 100.226 1656.78 -18.0088 100.528 1657.28 
-18.0116 100.533 1657.29 -18.2721 101.108 1657.98 -18.5329 101.597 1658.47 
-18.7505 101.79 1658.75 -18.8706 101.853 1658.87 -18.8713 101.853 1658.87 
-18.9564 101.9 1658.96 -18.9584 101.901 1658.96 -19.0797 101.997 1659.08 
-19.2866 102.145 1659.25 -19.8411 102.484 1659.61 -20.0679 102.639 1659.75 
-20.0687 102.64 1659.75 -20.1146 102.68 1659.78 -20.3362 102.851 1659.87 
-20.5801 103.058 1659.91 -23.034 104.779 1660.13 -23.6428 104.941 1660.2 
-24.761 105.252 1660.11 -25.2211 105.391 1660.13 -25.4815 105.443 1660.13 
-26.9199 105.934 1659.97 -27.8137 106.129 1659.81 -29.7755 106.383 1659.46 
-31.1673 106.672 1658.93 -32.3035 105.404 1656.83 -32.5064 105.162 1656.41 
-32.8144 104.841 1655.95 -33.9441 102.533 1654.69 -33.9453 102.532 1654.69 
-34.2256 102.037 1654.46 -35.3528 99.8489 1653.17 -36.7379 98.4596 1652.03 
-37.0993 98.1388 1651.8 -37.1373 98.111 1651.77 -37.5499 97.9354 1651.49 
-37.5561 97.9327 1651.48 -38.9974 97.0159 1650.64 -39.3562 96.9764 1650.44 
-40.9649 96.314 1649.71 -41.3864 96.1658 1649.47 -41.9458 95.7099 1648.89 
-42.637 95.5958 1648.13 -42.6761 95.574 1648.09 -43.3757 95.1539 1647.47 
-43.5536 95.067 1647.33 -44.4272 94.8879 1646.48 -44.9427 94.5161 1645.97 
-46.0451 94.1436 1644.65 -46.9688 93.6521 1643.76 -47.8812 93.2911 1642.77 
-48.4823 92.8401 1642.02 -48.4844 92.8394 1642.02 -48.9962 92.6796 1641.58 
-49.273 92.5016 1641.33 -49.2734 92.5013 1641.33 -49.3578 92.4225 1641.25 
-50.4907 91.5745 1640.03 -50.9926 91.3563 1639.55 -51.3619 91.1702 1639.13 
-51.5518 91.0105 1638.93 -51.8641 90.7748 1638.57 -52.2433 90.4737 1638.19 
-52.2808 90.4479 1638.16 -52.3726 90.3604 1638.09 -52.865 89.9112 1637.58 
-53.1723 89.4724 1637.37 -53.1938 89.4468 1637.35 -53.6026 88.1762 1636.3 
-53.9506 87.0264 1635.76 -53.9964 86.7007 1635.48 -54.1158 85.8818 1634.83 
-54.1474 85.7978 1634.78 -54.2562 85.5865 1634.65 -54.3586 85.2378 1634.4 
-54.5057 84.4435 1634 -54.5562 84.2795 1633.9 -54.7578 83.7623 1633.54 
-55.1455 82.4217 1632.97 -55.3484 82.1162 1632.8 -55.3801 82.065 1632.77 
-55.5995 81.5437 1632.54 -55.6737 81.2043 1632.35 -55.7386 81.001 1632.21 
-55.742 80.9959 1632.2 -56.1649 80.3705 1631.84 -56.268 80.1331 1631.72 
-56.6071 79.0962 1631.26 -57.0847 78.2783 1631.06 -57.1896 77.8647 1630.96 
-57.1945 77.8508 1630.95 -57.322 76.9549 1630.74 -57.2947 76.5865 1630.66 
-57.2998 76.4868 1630.64 -57.3132 76.318 1630.61 -57.3131 76.2956 1630.61 
-57.2734 76.0193 1630.58 -56.9305 75.2343 1630.51 -56.9096 75.1895 1630.5 
-56.8169 75.0451 1630.49 -56.6141 74.6465 1630.53 -56.5069 74.4263 1630.53 
-56.4926 74.3939 1630.54 -56.1166 73.6446 1630.47 -55.9258 73.4014 1630.45 
-55.5271 72.2607 1630.48 -55.5257 72.2561 1630.48 -55.3999 71.7428 1630.39 
-55.2366 71.2672 1630.36 -55.2178 71.1515 1630.4 -54.9037 70.1755 1630.51 
-54.7553 69.6959 1630.52 -54.6517 69.2517 1630.52 -54.6448 69.2408 1630.52 
-54.4636 68.9099 1630.51 -54.2203 68.2495 1630.49 -54.2189 68.2464 1630.49 
-54.0113 67.6839 1630.51 -53.8608 67.1769 1630.5 -53.3108 65.9815 1630.56 
-53.2772 65.8903 1630.56 -52.9943 65.4655 1630.52 -52.5068 64.7236 1630.39 
-52.3564 64.5608 1630.37 -52.3367 64.5301 1630.36 -52.128 64.2822 1630.19 
-51.2397 63.4311 1629.66 -51.0867 63.3085 1629.55 -50.5983 62.7606 1629.02 
-50.1728 62.3135 1628.07 -50.2349 62.0485 1627.74 -50.29 61.6956 1626.57 
-50.2932 61.6729 1626.52 -50.5696 61.3246 1625.51 -50.6014 61.1845 1625.21 
-50.661 61.0247 1624.67 -50.7761 60.8806 1624.43 -50.949 60.5616 1623.88 
-51.003 60.0399 1623.3 -51.0537 59.9224 1623.15 -51.1268 59.6763 1622.83 
-51.7525 58.8063 1622.26 -51.8672 58.583 1622.19 -52.5216 57.2487 1621.49 
-52.5781 57.2033 1621.38 -53.3147 56.6341 1620.47 -53.3822 56.5589 1620.31 
-53.8087 56.3297 1619.84 -53.8498 56.275 1619.79 -53.8499 56.2749 1619.79 
-53.8593 56.2693 1619.78 -74.3638 135.856 1633.36 -74.1127 135.606 1633.44 
-73.4301 135.118 1633.7 -72.964 134.742 1633.8 -72.0665 134.029 1634.14 
-71.5189 133.727 1634.31 -70.9769 133.207 1634.39 -70.8571 133.078 1634.4 
-70.1139 132.597 1634.51 -69.9948 132.474 1634.52 -69.8935 132.384 1634.53 
-69.4514 132.048 1634.61 -69.4362 132.029 1634.61 -69.1637 131.762 1634.69 
-68.7235 131.214 1634.97 -68.1046 130.651 1635.2 -68.0422 130.6 1635.22 
-67.9488 130.5 1635.25 -67.255 129.903 1635.61 -67.2008 129.865 1635.64 
-67.1067 129.802 1635.71 -66.9813 129.698 1635.77 -66.8918 129.639 1635.81 
-66.5525 129.36 1635.97 -65.9576 128.972 1636.26 -65.8286 128.903 1636.29 
-65.6913 128.847 1636.33 -65.3971 128.692 1636.48 -65.3171 128.636 1636.53 
-65.2323 128.552 1636.58 -65.2151 128.539 1636.59 -65.1151 128.472 1636.63 
-65.0998 128.464 1636.64 -64.9175 128.332 1636.73 -64.8909 128.312 1636.74 
-64.6678 128.135 1636.83 -64.529 128.006 1636.89 -64.1999 127.766 1636.97 
-64.0215 127.598 1637.05 -63.4854 127.137 1637.24 -63.2831 126.989 1637.32 
-62.7269 126.381 1637.63 -62.7263 126.38 1637.63 -62.5669 126.263 1637.69 
-62.0942 125.71 1637.99 -61.7863 125.294 1638.2 -61.5168 124.853 1638.46 
-61.5152 124.85 1638.46 -61.3835 124.646 1638.53 -61.1068 124.298 1638.58 
-60.9257 124.047 1638.57 -60.8746 123.965 1638.58 -60.3771 123.113 1638.77 
-59.8907 122.641 1638.98 -59.4751 122.44 1639.08 -59.333 122.372 1639.12 
-59.1431 122.305 1639.17 -57.277 121.368 1639.92 -57.1826 121.332 1639.96 
-56.1953 120.683 1640.35 -54.9969 120.232 1640.9 -54.6527 120.111 1641.11 
-53.9842 119.842 1641.54 -52.9766 119.634 1642.17 -52.8246 119.562 1642.28 
-52.2212 119.221 1642.6 -51.7503 119.081 1642.83 -51.0724 118.784 1643.45 
-50.5041 118.461 1644.07 -49.8131 118.016 1644.63 -49.3735 117.591 1645.13 
-48.6138 117.043 1645.98 -47.8616 116.589 1646.79 -47.4492 116.31 1647.22 
-47.4252 116.3 1647.24 -47.2266 116.192 1647.46 -46.8516 115.951 1647.89 
-46.5262 115.751 1648.24 -46.1235 115.469 1648.67 -45.133 115.046 1649.64 
-45.1268 115.043 1649.64 -45.0342 115.018 1649.73 -44.7303 114.904 1649.96 
-44.6721 114.883 1650 -44.5737 114.844 1650.1 -44.5726 114.844 1650.1 
-44.2922 114.753 1650.38 -43.8802 114.716 1650.76 -41.57 114.284 1652.45 
-40.956 114.168 1652.82 -40.9454 114.164 1652.83 -40.5291 113.99 1653.23 
-40.0119 113.759 1653.54 -39.2286 113.449 1654.31 -37.6534 112.708 1655.19 
-36.8476 112.076 1655.46 -36.4149 111.625 1655.63 -36.1764 111.418 1655.73 
-35.3998 110.787 1655.95 -33.7126 109.282 1656.04 -32.7933 108.417 1656.14 
-32.4054 108.007 1656.1 -32.3263 107.916 1656.08 -32.2676 107.835 1656.11 
-32.2702 107.825 1656.11 -32.6961 106.12 1656.11 -32.7786 105.436 1656.09 
-33.9441 102.533 1654.69 -33.9453 102.532 1654.69 -34.2256 102.037 1654.46 
-35.3528 99.8489 1653.17 -36.7379 98.4596 1652.03 -37.0993 98.1388 1651.8 
-37.1373 98.111 1651.77 -37.5499 97.9354 1651.49 -37.5561 97.9327 1651.48 
-38.9974 97.0159 1650.64 -39.3562 96.9764 1650.44 -40.9649 96.314 1649.71 
-41.3864 96.1658 1649.47 -41.9458 95.7099 1648.89 -42.637 95.5958 1648.13 
-42.6761 95.574 1648.09 -43.3757 95.1539 1647.47 -43.5536 95.067 1647.33 
-44.4272 94.8879 1646.48 -44.9427 94.5161 1645.97 -46.0451 94.1436 1644.65 
-46.9688 93.6521 1643.76 -47.8812 93.2911 1642.77 -48.4823 92.8401 1642.02 
-48.4844 92.8394 1642.02 -48.9962 92.6796 1641.58 -49.273 92.5016 1641.33 
-49.2734 92.5013 1641.33 -49.3578 92.4225 1641.25 -50.4907 91.5745 1640.03 
-50.9926 91.3563 1639.55 -51.3619 91.1702 1639.13 -51.5518 91.0105 1638.93 
-51.8641 90.7748 1638.57 -52.2433 90.4737 1638.19 -52.2808 90.4479 1638.16 
-52.3726 90.3604 1638.09 -52.865 89.9112 1637.58 -53.1723 89.4724 1637.37 
-53.1938 89.4468 1637.35 -53.6026 88.1762 1636.3 -53.9506 87.0264 1635.76 
-53.9964 86.7007 1635.48 -54.1158 85.8818 1634.83 -54.1474 85.7978 1634.78 
-54.2562 85.5865 1634.65 -54.3586 85.2378 1634.4 -54.5057 84.4435 1634 
-54.5562 84.2795 1633.9 -54.7578 83.7623 1633.54 -55.1455 82.4217 1632.97 
-55.3484 82.1162 1632.8 -55.3801 82.065 1632.77 -55.5995 81.5437 1632.54 
-55.6737 81.2043 1632.35 -55.7386 81.001 1632.21 -55.742 80.9959 1632.2 
-56.1649 80.3705 1631.84 -56.268 80.1331 1631.72 -56.6071 79.0962 1631.26 
-57.0847 78.2783 1631.06 -57.1896 77.8647 1630.96 -57.1945 77.8508 1630.95 
-57.322 76.9549 1630.74 -57.2947 76.5865 1630.66 -57.2998 76.4868 1630.64 
-57.3132 76.318 1630.61 -57.3131 76.2956 1630.61 -57.2734 76.0193 1630.58 
-56.9305 75.2343 1630.51 -56.9096 75.1895 1630.5 -56.8169 75.0451 1630.49 
-56.6141 74.6465 1630.53 -56.5069 74.4263 1630.53 -56.4926 74.3939 1630.54 
-56.1166 73.6446 1630.47 -55.9258 73.4014 1630.45 -55.5271 72.2607 1630.48 
-55.5257 72.2561 1630.48 -55.3999 71.7428 1630.39 -55.2366 71.2672 1630.36 
-55.2178 71.1515 1630.4 -54.9037 70.1755 1630.51 -54.7553 69.6959 1630.52 
-54.6517 69.2517 1630.52 -54.6448 69.2408 1630.52 -54.4636 68.9099 1630.51 
-54.2203 68.2495 1630.49 -54.2189 68.2464 1630.49 -54.0113 67.6839 1630.51 
-53.8608 67.1769 1630.5 -53.3108 65.9815 1630.56 -53.2772 65.8903 1630.56 
-52.9943 65.4655 1630.52 -52.5068 64.7236 1630.39 -52.3564 64.5608 1630.37 
-52.3367 64.5301 1630.36 -52.128 64.2822 1630.19 -51.2397 63.4311 1629.66 
-51.0867 63.3085 1629.55 -50.5983 62.7606 1629.02 -50.1728 62.3135 1628.07 
-50.2349 62.0485 1627.74 -50.29 61.6956 1626.57 -50.2932 61.6729 1626.52 
-50.5696 61.3246 1625.51 -50.6014 61.1845 1625.21 -50.661 61.0247 1624.67 
-50.7761 60.8806 1624.43 -50.949 60.5616 1623.88 -51.003 60.0399 1623.3 
-51.0537 59.9224 1623.15 -51.1268 59.6763 1622.83 -51.7525 58.8063 1622.26 
-51.8672 58.583 1622.19 -52.5216 57.2487 1621.49 -52.5781 57.2033 1621.38 
-53.3147 56.6341 1620.47 -53.3822 56.5589 1620.31 -53.8087 56.3297 1619.84 
-53.8498 56.275 1619.79 -53.8499 56.2749 1619.79 -53.8593 56.2693 1619.78 
-109.225 117.345 1570.19 -109.225 117.345 1570.19 -109.222 117.345 1570.2 
-109.22 117.347 1570.2 -109.13 117.429 1570.51 -109.13 117.43 1570.51 
-108.889 117.557 1570.77 -108.827 117.587 1570.81 -108.482 117.851 1571.05 
-108.464 117.883 1571.07 -108.04 118.298 1571.46 -108.009 118.329 1571.48 
-107.731 118.493 1571.86 -107.697 118.514 1571.88 -107.564 118.607 1572.02 
-107.274 118.746 1572.43 -107.171 118.844 1572.69 -106.795 118.978 1573.44 
-106.674 119.116 1573.95 -105.955 119.247 1575.09 -105.75 119.295 1575.59 
-105.551 119.282 1575.99 -105.486 119.326 1576.17 -105.107 119.461 1577.37 
-104.724 119.558 1577.97 -104.193 119.583 1578.74 -103.643 119.641 1579.61 
-103.558 119.662 1579.74 -103.076 119.858 1580.27 -102.906 119.88 1580.53 
-102.278 119.863 1581.26 -101.931 120.001 1581.73 -101.652 120.056 1582.13 
-101.338 120.159 1582.65 -101.038 120.163 1583.11 -100.679 120.308 1583.97 
-100.387 120.369 1584.46 -100.384 120.369 1584.47 -100.383 120.37 1584.47 
-100.261 120.41 1584.84 -99.877 120.458 1585.59 -99.4712 120.595 1586.12 
-99.2734 120.621 1586.56 -98.8281 120.676 1587.49 -98.6444 120.686 1587.77 
-98.0859 120.778 1588.68 -98.0849 120.778 1588.69 -98.0442 120.781 1588.78 
-97.8595 120.724 1589.09 -97.3288 120.777 1589.61 -96.9958 120.793 1589.98 
-96.8537 120.786 1590.19 -96.7862 120.812 1590.3 -96.199 120.837 1591.15 
-95.8178 120.769 1591.55 -95.4551 120.764 1591.89 -94.781 120.822 1593.01 
-94.097 120.678 1593.89 -94.0406 120.664 1593.98 -93.5696 120.804 1594.72 
-93.2009 120.719 1595.67 -92.656 120.604 1596.23 -91.8244 120.455 1597.75 
-91.567 120.459 1598.57 -90.2825 120.213 1600.3 -90.2813 120.213 1600.31 
-89.9891 120.192 1600.72 -89.7706 120.213 1600.95 -88.3234 120.14 1602.79 
-88.2996 120.147 1602.82 -87.841 120.131 1603.27 -86.7105 120.269 1604.45 
-86.2051 120.266 1604.89 -85.5973 120.295 1605.44 -85.2633 120.34 1605.79 
-84.8323 120.301 1606.24 -84.0599 120.388 1607.19 -83.8369 120.479 1607.47 
-82.5051 120.629 1608.93 -82.267 120.668 1609.1 -81.4805 120.678 1609.89 
-81.0819 120.645 1610.43 -80.809 120.647 1610.82 -80.5769 120.682 1611.1 
-79.8531 120.667 1612 -79.4258 120.671 1612.49 -79.3982 120.672 1612.52 
-79.398 120.672 1612.52 -79.383 120.67 1612.53 -79.0944 120.659 1612.88 
-77.8864 120.746 1614.21 -77.8466 120.758 1614.26 -76.774 120.886 1615.46 
-76.3567 121.005 1615.95 -76.2344 121.027 1616.08 -76.1328 121.056 1616.19 
-75.9769 121.097 1616.36 -75.94 121.109 1616.41 -75.6652 121.177 1616.73 
-75.464 121.21 1616.98 -75.2692 121.241 1617.2 -75.0629 121.312 1617.4 
-74.867 121.384 1617.6 -74.838 121.396 1617.64 -74.7185 121.422 1617.79 
-73.8007 121.547 1618.73 -73.6459 121.551 1618.85 -73.6309 121.551 1618.87 
-73.4353 121.532 1619.07 -72.1378 121.528 1619.86 -71.4582 121.482 1620.47 
-70.882 121.408 1620.9 -70.7226 121.394 1621.01 -69.5693 121.505 1621.94 
-69.4236 121.507 1622.03 -69.3346 121.51 1622.12 -68.2555 121.684 1623.26 
-68.0671 121.596 1623.51 -66.8821 121.752 1624.79 -66.6666 121.744 1624.98 
-66.6363 121.751 1625.01 -66.5155 121.751 1625.11 -64.9769 121.285 1626.8 
-64.6599 121.261 1627.16 -64.2713 121.285 1627.74 -63.6425 121.184 1628.42 
-63.4293 121.15 1628.69 -63.1724 121.162 1628.95 -62.8696 121.097 1629.34 
-62.7743 121.111 1629.46 -62.0914 121.204 1630.31 -62.0737 121.206 1630.33 
-61.1303 121.344 1631.52 -60.9294 121.402 1631.81 -60.3266 121.384 1632.78 
-59.5032 121.21 1633.92 -59.377 121.199 1634.07 -58.8066 121.113 1634.77 
-58.4809 120.981 1635.27 -57.7891 120.91 1636.29 -57.0354 120.793 1637.1 
-56.1484 120.455 1638.33 -55.9358 120.434 1638.61 -55.6197 120.295 1638.98 
-53.8495 119.733 1640.61 -53.2532 119.688 1641.11 -52.9996 119.64 1641.42 
-52.5155 119.412 1641.97 -52.0958 119.242 1642.43 -51.9352 119.167 1642.61 
-51.7557 119.088 1642.8 -51.2127 118.85 1643.28 -50.5041 118.461 1644.07 
-49.8131 118.016 1644.63 -49.3735 117.591 1645.13 -48.6138 117.043 1645.98 
-47.8616 116.589 1646.79 -47.4492 116.31 1647.22 -47.4252 116.3 1647.24 
-47.2266 116.192 1647.46 -46.8516 115.951 1647.89 -46.5262 115.751 1648.24 
-46.1235 115.469 1648.67 -45.133 115.046 1649.64 -45.1268 115.043 1649.64 
-45.0342 115.018 1649.73 -44.7303 114.904 1649.96 -44.6721 114.883 1650 
-44.5737 114.844 1650.1 -44.5726 114.844 1650.1 -44.2922 114.753 1650.38 
-43.8802 114.716 1650.76 -41.57 114.284 1652.45 -40.956 114.168 1652.82 
-40.9454 114.164 1652.83 -40.5291 113.99 1653.23 -40.0119 113.759 1653.54 
-39.2286 113.449 1654.31 -37.6534 112.708 1655.19 -36.8476 112.076 1655.46 
-36.4149 111.625 1655.63 -36.1764 111.418 1655.73 -35.3998 110.787 1655.95 
-33.7126 109.282 1656.04 -32.7933 108.417 1656.14 -32.4054 108.007 1656.1 
-32.3263 107.916 1656.08 -32.2676 107.835 1656.11 -32.2702 107.825 1656.11 
-32.6961 106.12 1656.11 -32.7786 105.436 1656.09 -33.9441 102.533 1654.69 
-33.9453 102.532 1654.69 -34.2256 102.037 1654.46 -35.3528 99.8489 1653.17 
-36.7379 98.4596 1652.03 -37.0993 98.1388 1651.8 -37.1373 98.111 1651.77 
-37.5499 97.9354 1651.49 -37.5561 97.9327 1651.48 -38.9974 97.0159 1650.64 
-39.3562 96.9764 1650.44 -40.9649 96.314 1649.71 -41.3864 96.1658 1649.47 
-41.9458 95.7099 1648.89 -42.637 95.5958 1648.13 -42.6761 95.574 1648.09 
-43.3757 95.1539 1647.47 -43.5536 95.067 1647.33 -44.4272 94.8879 1646.48 
-44.9427 94.5161 1645.97 -46.0451 94.1436 1644.65 -46.9688 93.6521 1643.76 
-47.8812 93.2911 1642.77 -48.4823 92.8401 1642.02 -48.4844 92.8394 1642.02 
-48.9962 92.6796 1641.58 -49.273 92.5016 1641.33 -49.2734 92.5013 1641.33 
-49.3578 92.4225 1641.25 -50.4907 91.5745 1640.03 -50.9926 91.3563 1639.55 
-51.3619 91.1702 1639.13 -51.5518 91.0105 1638.93 -51.8641 90.7748 1638.57 
-52.2433 90.4737 1638.19 -52.2808 90.4479 1638.16 -52.3726 90.3604 1638.09 
-52.865 89.9112 1637.58 -53.1723 89.4724 1637.37 -53.1938 89.4468 1637.35 
-53.6026 88.1762 1636.3 -53.9506 87.0264 1635.76 -53.9964 86.7007 1635.48 
-54.1158 85.8818 1634.83 -54.1474 85.7978 1634.78 -54.2562 85.5865 1634.65 
-54.3586 85.2378 1634.4 -54.5057 84.4435 1634 -54.5562 84.2795 1633.9 
-54.7578 83.7623 1633.54 -55.1455 82.4217 1632.97 -55.3484 82.1162 1632.8 
-55.3801 82.065 1632.77 -55.5995 81.5437 1632.54 -55.6737 81.2043 1632.35 
-55.7386 81.001 1632.21 -55.742 80.9959 1632.2 -56.1649 80.3705 1631.84 
-56.268 80.1331 1631.72 -56.6071 79.0962 1631.26 -57.0847 78.2783 1631.06 
-57.1896 77.8647 1630.96 -57.1945 77.8508 1630.95 -57.322 76.9549 1630.74 
-57.2947 76.5865 1630.66 -57.2998 76.4868 1630.64 -57.3132 76.318 1630.61 
-57.3131 76.2956 1630.61 -57.2734 76.0193 1630.58 -56.9305 75.2343 1630.51 
-56.9096 75.1895 1630.5 -56.8169 75.0451 1630.49 -56.6141 74.6465 1630.53 
-56.5069 74.4263 1630.53 -56.4926 74.3939 1630.54 -56.1166 73.6446 1630.47 
-55.9258 73.4014 1630.45 -55.5271 72.2607 1630.48 -55.5257 72.2561 1630.48 
-55.3999 71.7428 1630.39 -55.2366 71.2672 1630.36 -55.2178 71.1515 1630.4 
-54.9037 70.1755 1630.51 -54.7553 69.6959 1630.52 -54.6517 69.2517 1630.52 
-54.6448 69.2408 1630.52 -54.4636 68.9099 1630.51 -54.2203 68.2495 1630.49 
-54.2189 68.2464 1630.49 -54.0113 67.6839 1630.51 -53.8608 67.1769 1630.5 
-53.3108 65.9815 1630.56 -53.2772 65.8903 1630.56 -52.9943 65.4655 1630.52 
-52.5068 64.7236 1630.39 -52.3564 64.5608 1630.37 -52.3367 64.5301 1630.36 
-52.128 64.2822 1630.19 -51.2397 63.4311 1629.66 -51.0867 63.3085 1629.55 
-50.5983 62.7606 1629.02 -50.1728 62.3135 1628.07 -50.2349 62.0485 1627.74 
-50.29 61.6956 1626.57 -50.2932 61.6729 1626.52 -50.5696 61.3246 1625.51 
-50.6014 61.1845 1625.21 -50.661 61.0247 1624.67 -50.7761 60.8806 1624.43 
-50.949 60.5616 1623.88 -51.003 60.0399 1623.3 -51.0537 59.9224 1623.15 
-51.1268 59.6763 1622.83 -51.7525 58.8063 1622.26 -51.8672 58.583 1622.19 
-52.5216 57.2487 1621.49 -52.5781 57.2033 1621.38 -53.3147 56.6341 1620.47 
-53.3822 56.5589 1620.31 -53.8087 56.3297 1619.84 -53.8498 56.275 1619.79 
-53.8499 56.2749 1619.79 -53.8593 56.2693 1619.78 -107.689 113.459 1604.64 
-107.25 113.748 1603.93 -107.035 114.103 1603.54 -106.924 114.184 1603.42 
-106.567 114.624 1602.94 -106.441 114.686 1602.87 -106.226 114.839 1602.77 
-105.077 115.433 1602.51 -105.076 115.433 1602.51 -104.957 115.513 1602.49 
-104.408 115.849 1602.42 -104.376 115.859 1602.42 -103.965 115.966 1602.35 
-103.644 116.095 1602.3 -103.644 116.096 1602.3 -103.493 116.175 1602.29 
-102.673 116.526 1602.35 -102.239 116.68 1602.37 -101.383 116.964 1602.31 
-100.995 116.996 1602.35 -100.648 117.071 1602.38 -100.428 117.112 1602.43 
-98.8112 117.249 1602.63 -98.3866 117.39 1602.72 -98.2571 117.466 1602.75 
-98.1858 117.512 1602.77 -98.1592 117.525 1602.77 -96.7115 117.907 1602.74 
-96.0114 118.018 1602.8 -95.2963 118.363 1602.81 -94.6029 118.499 1602.78 
-93.931 118.828 1602.61 -91.9928 119.236 1602.81 -91.9576 119.235 1602.81 
-91.2324 119.276 1602.84 -89.4524 119.829 1603.1 -88.6956 119.979 1603.43 
-88.5198 119.96 1603.49 -87.3597 120.097 1604.13 -86.9347 120.181 1604.45 
-86.129 120.197 1605.11 -85.2104 120.322 1606.07 -85.0311 120.306 1606.26 
-84.2821 120.347 1606.98 -84.0439 120.395 1607.23 -83.8369 120.479 1607.47 
-82.5051 120.629 1608.93 -82.267 120.668 1609.1 -81.4805 120.678 1609.89 
-81.0819 120.645 1610.43 -80.809 120.647 1610.82 -80.5769 120.682 1611.1 
-79.8531 120.667 1612 -79.4258 120.671 1612.49 -79.3982 120.672 1612.52 
-79.398 120.672 1612.52 -79.383 120.67 1612.53 -79.0944 120.659 1612.88 
-77.8864 120.746 1614.21 -77.8466 120.758 1614.26 -76.774 120.886 1615.46 
-76.3567 121.005 1615.95 -76.2344 121.027 1616.08 -76.1328 121.056 1616.19 
-75.9769 121.097 1616.36 -75.94 121.109 1616.41 -75.6652 121.177 1616.73 
-75.464 121.21 1616.98 -75.2692 121.241 1617.2 -75.0629 121.312 1617.4 
-74.867 121.384 1617.6 -74.838 121.396 1617.64 -74.7185 121.422 1617.79 
-73.8007 121.547 1618.73 -73.6459 121.551 1618.85 -73.6309 121.551 1618.87 
-73.4353 121.532 1619.07 -72.1378 121.528 1619.86 -71.4582 121.482 1620.47 
-70.882 121.408 1620.9 -70.7226 121.394 1621.01 -69.5693 121.505 1621.94 
-69.4236 121.507 1622.03 -69.3346 121.51 1622.12 -68.2555 121.684 1623.26 
-68.0671 121.596 1623.51 -66.8821 121.752 1624.79 -66.6666 121.744 1624.98 
-66.6363 121.751 1625.01 -66.5155 121.751 1625.11 -64.9769 121.285 1626.8 
-64.6599 121.261 1627.16 -64.2713 121.285 1627.74 -63.6425 121.184 1628.42 
-63.4293 121.15 1628.69 -63.1724 121.162 1628.95 -62.8696 121.097 1629.34 
-62.7743 121.111 1629.46 -62.0914 121.204 1630.31 -62.0737 121.206 1630.33 
-61.1303 121.344 1631.52 -60.9294 121.402 1631.81 -60.3266 121.384 1632.78 
-59.5032 121.21 1633.92 -59.377 121.199 1634.07 -58.8066 121.113 1634.77 
-58.4809 120.981 1635.27 -57.7891 120.91 1636.29 -57.0354 120.793 1637.1 
-56.1484 120.455 1638.33 -55.9358 120.434 1638.61 -55.6197 120.295 1638.98 
-53.8495 119.733 1640.61 -53.2532 119.688 1641.11 -52.9996 119.64 1641.42 
-52.5155 119.412 1641.97 -52.0958 119.242 1642.43 -51.9352 119.167 1642.61 
-51.7557 119.088 1642.8 -51.2127 118.85 1643.28 -50.5041 118.461 1644.07 
-49.8131 118.016 1644.63 -49.3735 117.591 1645.13 -48.6138 117.043 1645.98 
-47.8616 116.589 1646.79 -47.4492 116.31 1647.22 -47.4252 116.3 1647.24 
-47.2266 116.192 1647.46 -46.8516 115.951 1647.89 -46.5262 115.751 1648.24 
-46.1235 115.469 1648.67 -45.133 115.046 1649.64 -45.1268 115.043 1649.64 
-45.0342 115.018 1649.73 -44.7303 114.904 1649.96 -44.6721 114.883 1650 
-44.5737 114.844 1650.1 -44.5726 114.844 1650.1 -44.2922 114.753 1650.38 
-43.8802 114.716 1650.76 -41.57 114.284 1652.45 -40.956 114.168 1652.82 
-40.9454 114.164 1652.83 -40.5291 113.99 1653.23 -40.0119 113.759 1653.54 
-39.2286 113.449 1654.31 -37.6534 112.708 1655.19 -36.8476 112.076 1655.46 
-36.4149 111.625 1655.63 -36.1764 111.418 1655.73 -35.3998 110.787 1655.95 
-33.7126 109.282 1656.04 -32.7933 108.417 1656.14 -32.4054 108.007 1656.1 
-32.3263 107.916 1656.08 -32.2676 107.835 1656.11 -32.2702 107.825 1656.11 
-32.6961 106.12 1656.11 -32.7786 105.436 1656.09 -33.9441 102.533 1654.69 
-33.9453 102.532 1654.69 -34.2256 102.037 1654.46 -35.3528 99.8489 1653.17 
-36.7379 98.4596 1652.03 -37.0993 98.1388 1651.8 -37.1373 98.111 1651.77 
-37.5499 97.9354 1651.49 -37.5561 97.9327 1651.48 -38.9974 97.0159 1650.64 
-39.3562 96.9764 1650.44 -40.9649 96.314 1649.71 -41.3864 96.1658 1649.47 
-41.9458 95.7099 1648.89 -42.637 95.5958 1648.13 -42.6761 95.574 1648.09 
-43.3757 95.1539 1647.47 -43.5536 95.067 1647.33 -44.4272 94.8879 1646.48 
-44.9427 94.5161 1645.97 -46.0451 94.1436 1644.65 -46.9688 93.6521 1643.76 
-47.8812 93.2911 1642.77 -48.4823 92.8401 1642.02 -48.4844 92.8394 1642.02 
-48.9962 92.6796 1641.58 -49.273 92.5016 1641.33 -49.2734 92.5013 1641.33 
-49.3578 92.4225 1641.25 -50.4907 91.5745 1640.03 -50.9926 91.3563 1639.55 
-51.3619 91.1702 1639.13 -51.5518 91.0105 1638.93 -51.8641 90.7748 1638.57 
-52.2433 90.4737 1638.19 -52.2808 90.4479 1638.16 -52.3726 90.3604 1638.09 
-52.865 89.9112 1637.58 -53.1723 89.4724 1637.37 -53.1938 89.4468 1637.35 
-53.6026 88.1762 1636.3 -53.9506 87.0264 1635.76 -53.9964 86.7007 1635.48 
-54.1158 85.8818 1634.83 -54.1474 85.7978 1634.78 -54.2562 85.5865 1634.65 
-54.3586 85.2378 1634.4 -54.5057 84.4435 1634 -54.5562 84.2795 1633.9 
-54.7578 83.7623 1633.54 -55.1455 82.4217 1632.97 -55.3484 82.1162 1632.8 
-55.3801 82.065 1632.77 -55.5995 81.5437 1632.54 -55.6737 81.2043 1632.35 
-55.7386 81.001 1632.21 -55.742 80.9959 1632.2 -56.1649 80.3705 1631.84 
-56.268 80.1331 1631.72 -56.6071 79.0962 1631.26 -57.0847 78.2783 1631.06 
-57.1896 77.8647 1630.96 -57.1945 77.8508 1630.95 -57.322 76.9549 1630.74 
-57.2947 76.5865 1630.66 -57.2998 76.4868 1630.64 -57.3132 76.318 1630.61 
-57.3131 76.2956 1630.61 -57.2734 76.0193 1630.58 -56.9305 75.2343 1630.51 
-56.9096 75.1895 1630.5 -56.8169 75.0451 1630.49 -56.6141 74.6465 1630.53 
-56.5069 74.4263 1630.53 -56.4926 74.3939 1630.54 -56.1166 73.6446 1630.47 
-55.9258 73.4014 1630.45 -55.5271 72.2607 1630.48 -55.5257 72.2561 1630.48 
-55.3999 71.7428 1630.39 -55.2366 71.2672 1630.36 -55.2178 71.1515 1630.4 
-54.9037 70.1755 1630.51 -54.7553 69.6959 1630.52 -54.6517 69.2517 1630.52 
-54.6448 69.2408 1630.52 -54.4636 68.9099 1630.51 -54.2203 68.2495 1630.49 
-54.2189 68.2464 1630.49 -54.0113 67.6839 1630.51 -53.8608 67.1769 1630.5 
-53.3108 65.9815 1630.56 -53.2772 65.8903 1630.56 -52.9943 65.4655 1630.52 
-52.5068 64.7236 1630.39 -52.3564 64.5608 1630.37 -52.3367 64.5301 1630.36 
-52.128 64.2822 1630.19 -51.2397 63.4311 1629.66 -51.0867 63.3085 1629.55 
-50.5983 62.7606 1629.02 -50.1728 62.3135 1628.07 -50.2349 62.0485 1627.74 
-50.29 61.6956 1626.57 -50.2932 61.6729 1626.52 -50.5696 61.3246 1625.51 
-50.6014 61.1845 1625.21 -50.661 61.0247 1624.67 -50.7761 60.8806 1624.43 
-50.949 60.5616 1623.88 -51.003 60.0399 1623.3 -51.0537 59.9224 1623.15 
-51.1268 59.6763 1622.83 -51.7525 58.8063 1622.26 -51.8672 58.583 1622.19 
-52.5216 57.2487 1621.49 -52.5781 57.2033 1621.38 -53.3147 56.6341 1620.47 
-53.3822 56.5589 1620.31 -53.8087 56.3297 1619.84 -53.8498 56.275 1619.79 
-53.8499 56.2749 1619.79 -53.8593 56.2693 1619.78 -38.9795 89.9398 1605.28 
-39.0373 89.7129 1605.61 -39.4426 89.2463 1605.99 -39.587 89.0706 1606.09 
-39.6751 89.0225 1606.12 -40.359 88.5854 1606.51 -40.5414 88.4364 1606.61 
-40.5954 88.4107 1606.63 -41.3974 87.9314 1607.09 -41.5148 87.8605 1607.21 
-41.6058 87.8199 1607.27 -42.1183 87.4701 1607.68 -42.3284 87.3582 1607.82 
-42.4983 87.234 1607.9 -42.5285 87.2136 1607.91 -43.0627 86.6271 1608.33 
-43.0645 86.6248 1608.34 -43.5 86.059 1608.94 -43.5156 85.9589 1609.03 
-44.6451 84.1779 1610.53 -44.9128 83.8542 1610.95 -45.4293 82.9103 1612.11 
-45.4943 82.693 1612.31 -45.6007 82.3326 1612.57 -45.6581 81.7873 1613.02 
-45.7239 81.4424 1613.33 -45.9605 80.1329 1614.54 -46.1142 79.9319 1614.83 
-46.133 79.8993 1614.87 -46.5395 78.5829 1616.4 -46.5917 78.1905 1616.75 
-46.8306 77.6749 1617.39 -46.9792 77.0663 1617.99 -47.0359 76.6375 1618.46 
-47.0329 76.4907 1618.6 -47.0449 76.4037 1618.69 -47.0839 75.1911 1619.54 
-47.1586 74.6387 1619.84 -47.1497 74.3711 1619.97 -47.152 74.359 1619.97 
-47.236 74.032 1620.19 -47.4618 72.5729 1620.96 -47.4819 72.4647 1621.03 
-47.89 71.0502 1621.38 -47.9333 70.4673 1621.47 -48.0775 69.7763 1621.54 
-48.5751 68.2516 1621.81 -48.6928 67.7067 1621.88 -48.7152 67.5741 1621.9 
-48.7198 67.5499 1621.9 -48.8377 66.8512 1622.08 -48.8392 66.847 1622.08 
-49.0301 65.5897 1622.23 -49.0527 65.5335 1622.24 -49.5206 64.2739 1622.27 
-49.692 64.0382 1622.27 -49.8486 63.7357 1622.23 -49.8494 63.7345 1622.23 
-50.4998 62.7115 1622.39 -51.1267 61.5136 1622.19 -51.4789 60.9938 1622.19 
-52.0305 59.7505 1621.84 -52.5135 58.9423 1621.49 -52.9406 57.7246 1620.7 
-53.2133 57.0849 1620.6 -53.4032 56.5946 1620.27 -53.8296 56.3344 1619.81 
-53.8498 56.275 1619.79 -53.8499 56.2749 1619.79 -53.8593 56.2693 1619.78 

LINES 8 1571
129 128 127 126 125 124 123 122 121 120 119 118 117 116 115 114 113 112 111 110 109 108 107 106 105 104 103 102 101 100 99 98 97 96 95 94 93 92 91 90 89 88 87 86 85 84 83 82 81 80 79 78 77 76 75 74 73 72 71 70 69 68 67 66 65 64 63 62 61 60 59 58 57 56 55 54 53 52 51 50 49 48 47 46 45 44 43 42 41 40 39 38 37 36 35 34 33 32 31 30 29 28 27 26 25 24 23 22 21 20 19 18 17 16 15 14 13 12 11 10 9 8 7 6 5 4 3 2 1 0 
156 284 283 282 281 280 279 278 277 276 275 274 273 272 271 270 269 268 267 266 265 264 263 262 261 260 259 258 257 256 255 254 253 252 251 250 249 248 247 246 245 244 243 242 241 240 239 238 237 236 235 234 233 232 231 230 229 228 227 226 225 224 223 222 221 220 219 218 217 216 215 214 213 212 211 210 209 208 207 206 205 204 203 202 201 200 199 198 197 196 195 194 193 192 191 190 189 188 187 186 185 184 183 182 181 180 179 178 177 176 175 174 173 172 171 170 169 168 167 166 165 164 163 162 161 160 159 158 157 156 155 154 153 152 151 150 149 148 147 146 145 144 143 142 141 140 139 138 137 136 135 134 133 132 131 130 129 
164 448 447 446 445 444 443 442 441 440 439 438 437 436 435 434 433 432 431 430 429 428 427 426 425 424 423 422 421 420 419 418 417 416 415 414 413 412 411 410 409 408 407 406 405 404 403 402 401 400 399 398 397 396 395 394 393 392 391 390 389 388 387 386 385 384 383 382 381 380 379 378 377 376 375 374 373 372 371 370 369 368 367 366 365 364 363 362 361 360 359 358 357 356 355 354 353 352 351 350 349 348 347 346 345 344 343 342 341 340 339 338 337 336 335 334 333 332 331 330 329 328 327 326 325 324 323 322 321 320 319 318 317 316 315 314 313 312 311 310 309 308 307 306 305 304 303 302 301 300 299 298 297 296 295 294 293 292 291 290 289 288 287 286 285 
218 666 665 664 663 662 661 660 659 658 657 656 655 654 653 652 651 650 649 648 647 646 645 644 643 642 641 640 639 638 637 636 635 634 633 632 631 630 629 628 627 626 625 624 623 622 621 620 619 618 617 616 615 614 613 612 611 610 609 608 607 606 605 604 603 602 601 600 599 598 597 596 595 594 593 592 591 590 589 588 587 586 585 584 583 582 581 580 579 578 577 576 575 574 573 572 571 570 569 568 567 566 565 564 563 562 561 560 559 558 557 556 555 554 553 552 551 550 549 548 547 546 545 544 543 542 541 540 539 538 537 536 535 534 533 532 531 530 529 528 527 526 525 524 523 522 521 520 519 518 517 516 515 514 513 512 511 510 509 508 507 506 505 504 503 502 501 500 499 498 497 496 495 494 493 492 491 490 489 488 487 486 485 484 483 482 481 480 479 478 477 476 475 474 473 472 471 470 469 468 467 466 465 464 463 462 461 460 459 458 457 456 455 454 453 452 451 450 449 
230 896 895 894 893 892 891 890 889 888 887 886 885 884 883 882 881 880 879 878 877 876 875 874 873 872 871 870 869 868 867 866 865 864 863 862 861 860 859 858 857 856 855 854 853 852 851 850 849 848 847 846 845 844 843 842 841 840 839 838 837 836 835 834 833 832 831 830 829 828 827 826 825 824 823 822 821 820 819 818 817 816 815 814 813 812 811 810 809 808 807 806 805 804 803 802 801 800 799 798 797 796 795 794 793 792 791 790 789 788 787 786 785 784 783 782 781 780 779 778 777 776 775 774 773 772 771 770 769 768 767 766 765 764 763 762 761 760 759 758 757 756 755 754 753 752 751 750 749 748 747 746 745 744 743 742 741 740 739 738 737 736 735 734 733 732 731 730 729 728 727 726 725 724 723 722 721 720 719 718 717 716 715 714 713 712 711 710 709 708 707 706 705 704 703 702 701 700 699 698 697 696 695 694 693 692 691 690 689 688 687 686 685 684 683 682 681 680 679 678 677 676 675 674 673 672 671 670 669 668 667 
314 1210 1209 1208 1207 1206 1205 1204 1203 1202 1201 1200 1199 1198 1197 1196 1195 1194 1193 1192 1191 1190 1189 1188 1187 1186 1185 1184 1183 1182 1181 1180 1179 1178 1177 1176 1175 1174 1173 1172 1171 1170 1169 1168 1167 1166 1165 1164 1163 1162 1161 1160 1159 1158 1157 1156 1155 1154 1153 1152 1151 1150 1149 1148 1147 1146 1145 1144 1143 1142 1141 1140 1139 1138 1137 1136 1135 1134 1133 1132 1131 1130 1129 1128 1127 1126 1125 1124 1123 1122 1121 1120 1119 1118 1117 1116 1115 1114 1113 1112 1111 1110 1109 1108 1107 1106 1105 1104 1103 1102 1101 1100 1099 1098 1097 1096 1095 1094 1093 1092 1091 1090 1089 1088 1087 1086 1085 1084 1083 1082 1081 1080 1079 1078 1077 1076 1075 1074 1073 1072 1071 1070 1069 1068 1067 1066 1065 1064 1063 1062 1061 1060 1059 1058 1057 1056 1055 1054 1053 1052 1051 1050 1049 1048 1047 1046 1045 1044 1043 1042 1041 1040 1039 1038 1037 1036 1035 1034 1033 1032 1031 1030 1029 1028 1027 1026 1025 1024 1023 1022 1021 1020 1019 1018 1017 1016 1015 1014 1013 1012 1011 1010 1009 1008 1007 1006 1005 1004 1003 1002 1001 1000 999 998 997 996 995 994 993 992 991 990 989 988 987 986 985 984 983 982 981 980 979 978 977 976 975 974 973 972 971 970 969 968 967 966 965 964 963 962 961 960 959 958 957 956 955 954 953 952 951 950 949 948 947 946 945 944 943 942 941 940 939 938 937 936 935 934 933 932 931 930 929 928 927 926 925 924 923 922 921 920 919 918 917 916 915 914 913 912 911 910 909 908 907 906 905 904 903 902 901 900 899 898 897 
282 1492 1491 1490 1489 1488 1487 1486 1485 1484 1483 1482 1481 1480 1479 1478 1477 1476 1475 1474 1473 1472 1471 1470 1469 1468 1467 1466 1465 1464 1463 1462 1461 1460 1459 1458 1457 1456 1455 1454 1453 1452 1451 1450 1449 1448 1447 1446 1445 1444 1443 1442 1441 1440 1439 1438 1437 1436 1435 1434 1433 1432 1431 1430 1429 1428 1427 1426 1425 1424 1423 1422 1421 1420 1419 1418 1417 1416 1415 1414 1413 1412 1411 1410 1409 1408 1407 1406 1405 1404 1403 1402 1401 1400 1399 1398 1397 1396 1395 1394 1393 1392 1391 1390 1389 1388 1387 1386 1385 1384 1383 1382 1381 1380 1379 1378 1377 1376 1375 1374 1373 1372 1371 1370 1369 1368 1367 1366 1365 1364 1363 1362 1361 1360 1359 1358 1357 1356 1355 1354 1353 1352 1351 1350 1349 1348 1347 1346 1345 1344 1343 1342 1341 1340 1339 1338 1337 1336 1335 1334 1333 1332 1331 1330 1329 1328 1327 1326 1325 1324 1323 1322 1321 1320 1319 1318 1317 1316 1315 1314 1313 1312 1311 1310 1309 1308 1307 1306 1305 1304 1303 1302 1301 1300 1299 1298 1297 1296 1295 1294 1293 1292 1291 1290 1289 1288 1287 1286 1285 1284 1283 1282 1281 1280 1279 1278 1277 1276 1275 1274 1273 1272 1271 1270 1269 1268 1267 1266 1265 1264 1263 1262 1261 1260 1259 1258 1257 1256 1255 1254 1253 1252 1251 1250 1249 1248 1247 1246 1245 1244 1243 1242 1241 1240 1239 1238 1237 1236 1235 1234 1233 1232 1231 1230 1229 1228 1227 1226 1225 1224 1223 1222 1221 1220 1219 1218 1217 1216 1215 1214 1213 1212 1211 
70 1562 1561 1560 1559 1558 1557 1556 1555 1554 1553 1552 1551 1550 1549 1548 1547 1546 1545 1544 1543 1542 1541 1540 1539 1538 1537 1536 1535 1534 1533 1532 1531 1530 1529 1528 1527 1526 1525 1524 1523 1522 1521 1520 1519 1518 1517 1516 1515 1514 1513 1512 1511 1510 1509 1508 1507 1506 1505 1504 1503 1502 1501 1500 1499 1498 1497 1496 1495 1494 1493 

POINT_DATA 1563
FIELD FieldData 3
Radius 1 1563 double
1.7712538038 1.7725464655 1.932836514 1.9374540543 1.9772435452 2.0279567876 2.3426307838 2.3535415476 2.3624758177 
2.3991911065 2.413666746 2.4187254465 2.3942219416 2.4479975738 2.4949494325 2.5531707573 2.6301187924 2.669262124 
2.7209311181 2.7643184506 2.7876846128 2.7923620466 2.803567503 2.8142425781 2.8371681601 2.8947126651 3.007560456 
3.1910750798 3.1935612427 3.3464602578 3.3599084338 3.4974246056 3.6113300936 3.6128021606 3.979346856 4.217206921 
4.4818440705 4.5120125591 4.9583509512 5.3305141057 5.3954501543 5.406593037 5.5522618182 5.6615856911 5.6626835371 
5.6677571569 5.6971655387 5.6971793493 5.7006181826 5.6947161256 5.791765269 5.7911330787 5.7712041322 5.773536032 
5.7744556245 5.847560926 5.8999751361 5.9350946243 5.9433967286 5.9914834934 6.0267940782 6.0689457036 5.8831740581 
5.8191617065 5.8341505578 5.8788300934 5.880026691 5.8851819043 5.8421617124 5.8419540865 5.8162084741 5.8072920844 
5.6133818745 5.3006608581 5.054957487 5.0555054618 4.9390914519 4.949830134 4.7683497227 4.7661400522 4.6742374999 
4.6394524116 4.5567843317 4.4167960861 4.3153370562 4.1009300057 4.0353428747 4.0199405543 3.8236382505 3.8651215738 
3.8706347788 3.9879260151 4.0698739394 4.0978517187 4.1048277471 4.2980884637 4.3655290886 4.4302096197 4.4311528706 
4.4475858994 4.6798841016 4.6543545873 4.3495238141 4.2574742771 4.1357767488 3.8784463328 3.8886082052 3.8998948779 
3.9016186291 3.9134117389 3.9130227249 3.785939556 3.7741285343 3.6421166091 3.5915209474 3.5113393982 3.5108163074 
3.3554962282 3.3232264623 3.3646996385 3.4265579474 3.3505576844 3.4114247032 3.518788425 3.5295086467 3.3203239308 
3.3046308336 3.3045516188 3.298029602 2.173703144 2.1499226206 1.8363415235 1.8324223908 1.8194641242 1.8121273331 
1.8060735664 1.7463219324 1.7713527504 1.8083546781 1.8523399716 1.8563921615 1.9008933493 1.9342612953 1.9922535707 
2.0492981516 2.1111668797 2.1814986573 2.2441289085 2.2518722393 2.3407856584 2.3895802438 2.6761555955 2.7258400767 
2.7289065212 2.8842096565 2.8845115405 2.9596806667 2.9640432673 3.0425471355 3.2336944156 3.3802001877 3.4160337171 
3.4439972921 3.4456524512 3.5129622551 3.5316847972 3.6035285052 3.7666198647 3.7838358217 3.8322985046 3.8475248083 
3.8169010143 3.7317744176 3.7829401066 3.8592883606 3.7448207991 3.7431460789 3.7431273014 3.7384516907 3.5412509611 
3.4940208207 3.4960961327 3.5868863195 3.6658912854 3.7149717562 3.9987392079 4.0312066742 4.1304168754 4.4056730375 
4.5958647373 4.8414883648 5.1508880156 5.3526326492 5.364785113 5.3850537826 5.3992989235 5.5304930618 5.5527471774 
5.6011191391 5.6455948416 5.6498425155 5.6674516538 5.6971655387 5.6971793493 5.7006181826 5.6947161256 5.791765269 
5.7911330787 5.7712041322 5.773536032 5.7744556245 5.847560926 5.8999751361 5.9350946243 5.9433967286 5.9914834934 
6.0267940782 6.0689457036 5.8831740581 5.8191617065 5.8341505578 5.8788300934 5.880026691 5.8851819043 5.8421617124 
5.8419540865 5.8162084741 5.8072920844 5.6133818745 5.3006608581 5.054957487 5.0555054618 4.9390914519 4.949830134 
4.7683497227 4.7661400522 4.6742374999 4.6394524116 4.5567843317 4.4167960861 4.3153370562 4.1009300057 4.0353428747 
4.0199405543 3.8236382505 3.8651215738 3.8706347788 3.9879260151 4.0698739394 4.0978517187 4.1048277471 4.2980884637 
4.3655290886 4.4302096197 4.4311528706 4.4475858994 4.6798841016 4.6543545873 4.3495238141 4.2574742771 4.1357767488 
3.8784463328 3.8886082052 3.8998948779 3.9016186291 3.9134117389 3.9130227249 3.785939556 3.7741285343 3.6421166091 
3.5915209474 3.5113393982 3.5108163074 3.3554962282 3.3232264623 3.3646996385 3.4265579474 3.3505576844 3.4114247032 
3.518788425 3.5295086467 3.3203239308 3.3046308336 3.3045516188 3.298029602 2.2386107032 2.4631243902 2.5365066328 
2.9067553903 2.9111029124 2.9868468133 3.2218892209 3.3443601065 3.3641456003 3.3919029563 3.4730303636 3.4953998704 
3.5566412362 3.6034022175 3.5246079103 3.5209739216 3.4803464051 3.3633060721 3.3154235443 3.3151800221 3.291108851 
3.1751566975 3.1712988145 3.0991143117 3.1155837752 3.2422296677 3.2415651734 3.2174968932 3.2154297698 3.0242624488 
3.075333757 3.0769652579 3.0670496606 3.1643887094 3.1673628485 3.2130986032 3.1855875747 3.1629736493 3.1434379646 
3.0480792111 3.0431210492 2.9393973999 2.858466024 2.8497342711 2.8173795737 2.9108303557 3.0471633105 3.1146304757 
3.1147570249 3.1462677629 3.1471703722 3.168361517 3.1638904088 3.2450189229 3.3466204162 3.3596117686 3.3551262433 
3.3415807126 3.2998181382 3.2436174899 2.966421602 2.966772244 2.9810316841 2.9871280387 3.0515922566 3.0575390662 
3.1109519127 3.1152949491 3.0633194543 2.9494978453 3.0688739962 3.0685968764 3.1135874281 3.164377802 3.2427387619 
3.4028559344 3.4407367858 3.4408579517 3.4467950808 3.1695287074 3.2168446615 3.1881001649 3.1916330138 3.1561404281 
3.282591257 3.2897387968 3.290102784 3.2120688034 3.2810048384 3.2875030773 3.1926465532 3.0148859404 2.9771501182 
2.9701863086 2.9053421885 2.8696321959 2.8489050318 2.8480577507 2.7429948947 2.7228965183 2.7537700039 2.8931058649 
2.9417633737 2.9431420762 2.998006282 3.0103195401 3.0152058771 3.0293900361 3.0289678029 2.9974791759 2.8492069894 
2.8465030884 2.8223044245 2.7301833156 2.6849272805 2.6784541566 2.6119142653 2.5922522656 2.4737691762 2.4738601703 
2.5113374601 2.6028595581 2.5962155565 2.5709835007 2.6171478433 2.7001724297 2.700139483 2.6936485909 2.6947226162 
2.6946667545 2.7181154216 2.8068143778 2.7425044285 2.7476292968 2.7020828728 2.6512654114 2.6443724695 2.6395007249 
2.5532025642 2.5595358077 2.5933073101 2.6927153075 2.713953844 2.6302058031 2.5422448591 2.5396321686 2.6539762791 
2.7142406943 2.8599885011 2.9125098871 3.1092752864 3.3001786183 3.3436927474 3.4742580245 3.5320755048 3.5319780295 
3.7250755128 3.7165859432 3.5711153671 3.5454748146 3.3298225749 3.3046308336 3.3045516188 3.298029602 2.1736856048 
2.2034197182 2.2166558242 2.1426517914 1.8828290888 1.1893790018 1.1516733522 1.5025103786 2.0958393722 2.3419120523 
2.3991188001 2.821457532 2.9062884658 2.9604599329 2.9626934855 2.9865828343 3.0843754443 3.1192854603 3.2249977298 
3.2944480876 3.2947595141 3.3723046957 3.5487598904 3.5509611203 3.4320711188 3.3803983925 2.9135871363 2.6826334368 
2.572011201 2.4891803246 2.5138772537 2.527531999 2.5154957123 2.5095757399 2.5570692532 2.6550898335 2.6792489321 
2.8661602367 2.9033051552 2.9308557239 3.0319925273 3.2104404749 3.3201749961 3.3227561582 3.5352718433 3.5356270037 
3.5796668971 3.6219654851 3.6454172413 3.7031868892 3.9548872122 3.9550507233 3.9753260904 3.9761048266 4.0239971023 
4.0244346722 4.0604612645 4.2558735431 4.2648308418 4.2989790794 4.3088106601 4.4431464012 4.488549227 4.6269848758 
4.76140497 4.765399781 5.0110806589 5.0145027169 5.4118386881 5.745083105 5.9526713564 6.0508768799 6.0514709369 
6.1251340065 6.1268173638 6.2303438403 6.3755289369 6.7372929774 6.8808903206 6.8813928565 6.9122988202 7.03736858 
7.1171797805 7.9898197768 8.1720201584 8.3843851502 8.4920371854 8.5468139308 8.8038472448 8.9798692899 9.5446186542 
9.8891630419 8.3485993363 8.0734726218 7.7016447444 5.7105925428 5.7091066685 5.3391239577 4.1231230627 3.8232243939 
3.8503811908 3.8493164373 3.8040957337 3.8033914904 3.8242348505 3.7862123421 3.6877520558 3.7748201611 3.9021653589 
3.8888704798 3.8880823102 3.8501006853 3.8381828336 3.8664832162 3.7975666346 3.780987346 3.8132588659 3.7822841972 
3.893344258 3.8936230577 3.9630441642 3.9784689775 3.9784490733 3.9734929202 4.1691011898 4.2581163497 4.3600384693 
4.3750179744 4.4142792869 4.4846791014 4.4896757397 4.4971629174 4.5262148519 4.4408398791 4.4355344946 3.9775794579 
3.8106804078 3.727468191 3.6335238367 3.6245386399 3.5847666716 3.5026972764 3.373963686 3.3328170435 3.1926465532 
3.0148859404 2.9771501182 2.9701863086 2.9053421885 2.8696321959 2.8489050318 2.8480577507 2.7429948947 2.7228965183 
2.7537700039 2.8931058649 2.9417633737 2.9431420762 2.998006282 3.0103195401 3.0152058771 3.0293900361 3.0289678029 
2.9974791759 2.8492069894 2.8465030884 2.8223044245 2.7301833156 2.6849272805 2.6784541566 2.6119142653 2.5922522656 
2.4737691762 2.4738601703 2.5113374601 2.6028595581 2.5962155565 2.5709835007 2.6171478433 2.7001724297 2.700139483 
2.6936485909 2.6947226162 2.6946667545 2.7181154216 2.8068143778 2.7425044285 2.7476292968 2.7020828728 2.6512654114 
2.6443724695 2.6395007249 2.5532025642 2.5595358077 2.5933073101 2.6927153075 2.713953844 2.6302058031 2.5422448591 
2.5396321686 2.6539762791 2.7142406943 2.8599885011 2.9125098871 3.1092752864 3.3001786183 3.3436927474 3.4742580245 
3.5320755048 3.5319780295 3.7250755128 3.7165859432 3.5711153671 3.5454748146 3.3298225749 3.3046308336 3.3045516188 
3.298029602 3.2841618805 3.2739552884 3.2554874667 3.0880660473 2.9702075862 2.9754306244 2.9182017916 2.9110431933 
2.8024454626 2.7821601351 2.7631284644 2.6575541811 2.6555195945 2.5598187314 2.3204784749 2.1784069018 2.1746589887 
2.1609551869 2.1520150684 2.1632305883 2.1806646212 2.2192412851 2.2312729464 2.2975788364 2.536758263 2.586687173 
2.632028127 2.7444301935 2.7827016657 2.837448885 2.8450355309 2.8853549674 2.8891046179 2.9114255299 2.9151297369 
2.9628072306 2.9964888917 3.0438929421 3.0659825875 3.2110346536 3.2682191884 3.4909951468 3.4911788543 3.5369220385 
3.6363382461 3.7778829711 3.9418104863 3.9431396747 4.0525761882 4.2623941538 4.4367280616 4.4837305953 4.9961509443 
5.2771560735 5.3985844802 5.4275833627 5.4450470321 5.8157378875 5.8420147578 6.073298135 6.3309959903 6.4264568583 
6.6026699439 6.855685833 6.8791586443 6.9543064147 6.9610271847 6.9750359125 7.0229779213 6.9497074647 6.8619296454 
6.7779520354 6.8368096038 6.9034850152 6.904907243 6.9014386986 6.9151731617 6.9397379163 7.0026590263 7.1408178451 
7.1417321706 7.1553276033 7.16955024 7.173030491 7.1810013184 7.1810776924 7.2000948256 7.1737463412 7.4649388336 
7.6080044496 7.6114907411 7.7912254336 7.9252215011 8.1371573869 8.5145545169 8.5915964531 8.6369626433 8.6679600401 
8.7502902374 9.102084042 9.348430792 9.4421469117 9.4566041857 9.4773118326 9.4723572043 8.4773823636 8.1023339826 
5.7105925428 5.7091066685 5.3391239577 4.1231230627 3.8232243939 3.8503811908 3.8493164373 3.8040957337 3.8033914904 
3.8242348505 3.7862123421 3.6877520558 3.7748201611 3.9021653589 3.8888704798 3.8880823102 3.8501006853 3.8381828336 
3.8664832162 3.7975666346 3.780987346 3.8132588659 3.7822841972 3.893344258 3.8936230577 3.9630441642 3.9784689775 
3.9784490733 3.9734929202 4.1691011898 4.2581163497 4.3600384693 4.3750179744 4.4142792869 4.4846791014 4.4896757397 
4.4971629174 4.5262148519 4.4408398791 4.4355344946 3.9775794579 3.8106804078 3.727468191 3.6335238367 3.6245386399 
3.5847666716 3.5026972764 3.373963686 3.3328170435 3.1926465532 3.0148859404 2.9771501182 2.9701863086 2.9053421885 
2.8696321959 2.8489050318 2.8480577507 2.7429948947 2.7228965183 2.7537700039 2.8931058649 2.9417633737 2.9431420762 
2.998006282 3.0103195401 3.0152058771 3.0293900361 3.0289678029 2.9974791759 2.8492069894 2.8465030884 2.8223044245 
2.7301833156 2.6849272805 2.6784541566 2.6119142653 2.5922522656 2.4737691762 2.4738601703 2.5113374601 2.6028595581 
2.5962155565 2.5709835007 2.6171478433 2.7001724297 2.700139483 2.6936485909 2.6947226162 2.6946667545 2.7181154216 
2.8068143778 2.7425044285 2.7476292968 2.7020828728 2.6512654114 2.6443724695 2.6395007249 2.5532025642 2.5595358077 
2.5933073101 2.6927153075 2.713953844 2.6302058031 2.5422448591 2.5396321686 2.6539762791 2.7142406943 2.8599885011 
2.9125098871 3.1092752864 3.3001786183 3.3436927474 3.4742580245 3.5320755048 3.5319780295 3.7250755128 3.7165859432 
3.5711153671 3.5454748146 3.3298225749 3.3046308336 3.3045516188 3.298029602 1.4841059232 1.4841201416 1.4876605108 
1.4911449526 1.6618826012 1.6626833577 1.8620717351 1.8967026486 2.1344196071 2.1506697129 2.3404625133 2.3562473367 
2.5474232897 2.5649317948 2.6289874567 2.7515874633 2.8069012668 2.9664116743 3.0225683 3.110028482 3.2172845815 
3.2117466863 3.1836620897 3.001724043 2.950205241 2.8972812524 2.8741500324 2.8881088453 2.7964136452 2.7389183598 
2.7166227726 2.7328844236 2.7214724303 2.7566589071 2.8048216474 2.8048109619 2.8595780349 2.8597677178 2.8596709974 
2.8494110092 2.854225501 2.8157688682 2.7563117918 2.7967289419 2.7909715569 2.8075836513 2.8077482343 2.8144412768 
2.8132797755 2.7847162369 2.8209218986 2.835484128 2.8284338815 2.8486815928 2.8977125941 2.9380568623 2.9612390163 
3.1636031732 3.192189484 3.4212725651 3.7516995071 3.8923259959 4.299147462 4.5172288553 4.6432346616 4.6437960877 
4.7835912013 4.8714387854 5.1449145413 5.1501399945 5.1692787862 5.1158546411 5.177668818 5.1604094845 5.1312805433 
5.09373845 5.0761766679 5.0627162374 4.9433153119 4.9365414584 4.8520544373 4.8011252061 4.7939288154 4.7820849521 
4.7268388948 4.7921853245 4.7965688771 4.7965658296 4.7963149187 4.7809741519 4.800353866 4.8030682954 4.9434198284 
5.028386145 5.0461511546 5.0548489192 5.0708206723 5.0742594983 5.1220167074 5.1611100326 5.1931505261 5.2009905218 
5.2003443262 5.2002596342 5.1924556038 5.1894012634 5.1912379043 5.1914410119 5.1864065337 5.0360659926 5.0047281758 
5.0032853295 5.0161551311 5.0979361824 5.1093156476 5.0957585492 5.0677401712 5.0558088492 5.0543181029 5.0679921461 
5.0686770325 5.0478493143 4.8429964709 4.8676988614 4.9047309503 4.9210580779 4.9556918602 4.9969212987 5.0597558935 
5.0712452037 5.1679278185 5.1723296834 5.5242119411 5.5633707386 5.5846366337 5.6489506251 5.6609387794 5.7921501429 
5.8588487387 5.9850654954 6.0690330317 6.2682480288 6.3089209954 6.3078073115 6.5924310884 6.7439021236 6.8151719872 
6.871627626 6.9672322218 6.9652074258 6.9614500066 6.9535627078 7.0229779213 6.9497074647 6.8619296454 6.7779520354 
6.8368096038 6.9034850152 6.904907243 6.9014386986 6.9151731617 6.9397379163 7.0026590263 7.1408178451 7.1417321706 
7.1553276033 7.16955024 7.173030491 7.1810013184 7.1810776924 7.2000948256 7.1737463412 7.4649388336 7.6080044496 
7.6114907411 7.7912254336 7.9252215011 8.1371573869 8.5145545169 8.5915964531 8.6369626433 8.6679600401 8.7502902374 
9.102084042 9.348430792 9.4421469117 9.4566041857 9.4773118326 9.4723572043 8.4773823636 8.1023339826 5.7105925428 
5.7091066685 5.3391239577 4.1231230627 3.8232243939 3.8503811908 3.8493164373 3.8040957337 3.8033914904 3.8242348505 
3.7862123421 3.6877520558 3.7748201611 3.9021653589 3.8888704798 3.8880823102 3.8501006853 3.8381828336 3.8664832162 
3.7975666346 3.780987346 3.8132588659 3.7822841972 3.893344258 3.8936230577 3.9630441642 3.9784689775 3.9784490733 
3.9734929202 4.1691011898 4.2581163497 4.3600384693 4.3750179744 4.4142792869 4.4846791014 4.4896757397 4.4971629174 
4.5262148519 4.4408398791 4.4355344946 3.9775794579 3.8106804078 3.727468191 3.6335238367 3.6245386399 3.5847666716 
3.5026972764 3.373963686 3.3328170435 3.1926465532 3.0148859404 2.9771501182 2.9701863086 2.9053421885 2.8696321959 
2.8489050318 2.8480577507 2.7429948947 2.7228965183 2.7537700039 2.8931058649 2.9417633737 2.9431420762 2.998006282 
3.0103195401 3.0152058771 3.0293900361 3.0289678029 2.9974791759 2.8492069894 2.8465030884 2.8223044245 2.7301833156 
2.6849272805 2.6784541566 2.6119142653 2.5922522656 2.4737691762 2.4738601703 2.5113374601 2.6028595581 2.5962155565 
2.5709835007 2.6171478433 2.7001724297 2.700139483 2.6936485909 2.6947226162 2.6946667545 2.7181154216 2.8068143778 
2.7425044285 2.7476292968 2.7020828728 2.6512654114 2.6443724695 2.6395007249 2.5532025642 2.5595358077 2.5933073101 
2.6927153075 2.713953844 2.6302058031 2.5422448591 2.5396321686 2.6539762791 2.7142406943 2.8599885011 2.9125098871 
3.1092752864 3.3001786183 3.3436927474 3.4742580245 3.5320755048 3.5319780295 3.7250755128 3.7165859432 3.5711153671 
3.5454748146 3.3298225749 3.3046308336 3.3045516188 3.298029602 1.7068167757 2.1433840398 2.3728962217 2.4358695389 
2.6638521645 2.674854283 2.6804480405 2.7906649334 2.7907984005 2.8240317124 3.0333056496 3.03828502 3.062510975 
3.0828933851 3.0829046641 3.0857131476 3.1166711816 3.1026675483 3.0673728995 3.0225613897 2.9750049841 2.9530339522 
3.0383108521 3.126055542 3.1392624991 3.1459133105 3.145221382 3.204907787 3.3981766139 3.5585371447 3.6641794616 
3.7714935184 4.1240762476 4.1319444009 4.2968976451 4.7420072818 4.9528285899 4.9816927454 5.0447059821 5.0548428506 
5.1648135599 5.1006337621 5.089102127 5.0691493919 5.0766306367 5.0627162374 4.9433153119 4.9365414584 4.8520544373 
4.8011252061 4.7939288154 4.7820849521 4.7268388948 4.7921853245 4.7965688771 4.7965658296 4.7963149187 4.7809741519 
4.800353866 4.8030682954 4.9434198284 5.028386145 5.0461511546 5.0548489192 5.0708206723 5.0742594983 5.1220167074 
5.1611100326 5.1931505261 5.2009905218 5.2003443262 5.2002596342 5.1924556038 5.1894012634 5.1912379043 5.1914410119 
5.1864065337 5.0360659926 5.0047281758 5.0032853295 5.0161551311 5.0979361824 5.1093156476 5.0957585492 5.0677401712 
5.0558088492 5.0543181029 5.0679921461 5.0686770325 5.0478493143 4.8429964709 4.8676988614 4.9047309503 4.9210580779 
4.9556918602 4.9969212987 5.0597558935 5.0712452037 5.1679278185 5.1723296834 5.5242119411 5.5633707386 5.5846366337 
5.6489506251 5.6609387794 5.7921501429 5.8588487387 5.9850654954 6.0690330317 6.2682480288 6.3089209954 6.3078073115 
6.5924310884 6.7439021236 6.8151719872 6.871627626 6.9672322218 6.9652074258 6.9614500066 6.9535627078 7.0229779213 
6.9497074647 6.8619296454 6.7779520354 6.8368096038 6.9034850152 6.904907243 6.9014386986 6.9151731617 6.9397379163 
7.0026590263 7.1408178451 7.1417321706 7.1553276033 7.16955024 7.173030491 7.1810013184 7.1810776924 7.2000948256 
7.1737463412 7.4649388336 7.6080044496 7.6114907411 7.7912254336 7.9252215011 8.1371573869 8.5145545169 8.5915964531 
8.6369626433 8.6679600401 8.7502902374 9.102084042 9.348430792 9.4421469117 9.4566041857 9.4773118326 9.4723572043 
8.4773823636 8.1023339826 5.7105925428 5.7091066685 5.3391239577 4.1231230627 3.8232243939 3.8503811908 3.8493164373 
3.8040957337 3.8033914904 3.8242348505 3.7862123421 3.6877520558 3.7748201611 3.9021653589 3.8888704798 3.8880823102 
3.8501006853 3.8381828336 3.8664832162 3.7975666346 3.780987346 3.8132588659 3.7822841972 3.893344258 3.8936230577 
3.9630441642 3.9784689775 3.9784490733 3.9734929202 4.1691011898 4.2581163497 4.3600384693 4.3750179744 4.4142792869 
4.4846791014 4.4896757397 4.4971629174 4.5262148519 4.4408398791 4.4355344946 3.9775794579 3.8106804078 3.727468191 
3.6335238367 3.6245386399 3.5847666716 3.5026972764 3.373963686 3.3328170435 3.1926465532 3.0148859404 2.9771501182 
2.9701863086 2.9053421885 2.8696321959 2.8489050318 2.8480577507 2.7429948947 2.7228965183 2.7537700039 2.8931058649 
2.9417633737 2.9431420762 2.998006282 3.0103195401 3.0152058771 3.0293900361 3.0289678029 2.9974791759 2.8492069894 
2.8465030884 2.8223044245 2.7301833156 2.6849272805 2.6784541566 2.6119142653 2.5922522656 2.4737691762 2.4738601703 
2.5113374601 2.6028595581 2.5962155565 2.5709835007 2.6171478433 2.7001724297 2.700139483 2.6936485909 2.6947226162 
2.6946667545 2.7181154216 2.8068143778 2.7425044285 2.7476292968 2.7020828728 2.6512654114 2.6443724695 2.6395007249 
2.5532025642 2.5595358077 2.5933073101 2.6927153075 2.713953844 2.6302058031 2.5422448591 2.5396321686 2.6539762791 
2.7142406943 2.8599885011 2.9125098871 3.1092752864 3.3001786183 3.3436927474 3.4742580245 3.5320755048 3.5319780295 
3.7250755128 3.7165859432 3.5711153671 3.5454748146 3.3298225749 3.3046308336 3.3045516188 3.298029602 3.902529244 
4.2383344658 4.6799632138 4.8011870737 4.8415421253 5.1387575749 5.2325102646 5.2546110183 5.595356382 5.6280344528 
5.6490575636 5.7662255349 5.8231059708 5.8427068514 5.8440019458 5.6873591353 5.6866452532 5.5088886017 5.4465801664 
5.0013226051 4.9763946733 4.6806095576 4.6363977625 4.5567843317 4.4167960861 4.3153370562 4.1009300057 4.0353428747 
4.0199405543 3.8236382505 3.8651215738 3.8706347788 3.9879260151 4.0698739394 4.0978517187 4.1048277471 4.2980884637 
4.3655290886 4.4302096197 4.4311528706 4.4475858994 4.6798841016 4.6543545873 4.3495238141 4.2574742771 4.1357767488 
3.8784463328 3.8886082052 3.8998948779 3.9016186291 3.9134117389 3.9130227249 3.785939556 3.7741285343 3.6421166091 
3.5915209474 3.5113393982 3.5108163074 3.3554962282 3.3232264623 3.3646996385 3.4265579474 3.3505576844 3.4114247032 
3.518788425 3.5295086467 3.3203239308 3.3046308336 3.3045516188 3.298029602 
EdgeArray 2 1563 int
1132 1132 1525 1132 1525 1525 1523 1489 1488 
1522 1488 1495 1486 1486 1478 1500 1498 1500 
1477 1498 2035 2087 2090 2087 2091 2089 2062 
2063 2061 2063 1460 1083 1083 1433 1433 1433 
2046 2046 2068 2045 2068 2073 2073 2073 2069 
2072 1448 2069 2071 1423 1423 1423 1960 1960 
2013 2013 1814 2013 1814 1814 1989 2582 2582 
2582 2583 2583 2014 2583 2014 2014 2594 2557 
1056 1056 2555 1134 1789 1789 3145 3145 3144 
3681 3142 3684 3114 3683 3115 4092 3525 4092 
3525 3525 4090 4090 3498 4090 3498 3498 3530 
3530 4633 4030 4624 4030 2364 4624 3495 3495 
3467 3467 5352 5352 5351 5349 5350 5349 5350 
5350 2519 4592 3978 5192 4532 4532 4538 4538 
3650 3650 5298 5298 4678 5362 5369 5362 5369 
5369 2950 2950 2404 2950 2404 2404 5261 5261 
5184 5184 4159 4159 5226 5224 5224 5225 5225 
5225 5219 5219 5186 5186 5882 5895 5896 5896 
5127 5126 5852 5852 5833 5833 5836 5836 2806 
2806 5830 5830 5832 5831 5286 5145 5822 3092 
4847 6893 4847 5840 6329 6329 6425 6420 6420 
6420 5870 6858 4673 6858 6252 5673 2282 6252 
4465 4465 7774 7774 7776 7776 8288 8288 8282 
8290 7690 7690 8223 8223 8240 8240 8248 8249 
8248 8248 8247 8244 7652 8244 7667 7667 7668 
7229 7230 7218 7231 6766 7222 7231 7222 7222 
7151 7225 7203 7203 7621 6230 7617 7617 6715 
6715 7191 7191 7187 7187 7174 7174 7172 7172 
7162 7162 7160 7162 7160 7160 6931 6931 6933 
6933 6503 6503 6502 5657 6274 6059 6274 5098 
6510 6510 6522 6513 6513 5981 6476 5981 6496 
6496 5486 6497 4244 4244 5082 6495 5082 5082 
6047 5999 6047 6047 6044 6002 6003 6002 6003 
6031 5646 1317 5512 5957 5982 5982 6014 6015 
6012 6014 6012 6012 6013 6012 6013 6013 5611 
5994 5611 5611 5609 5609 3074 3074 5616 5622 
5622 5622 5621 5622 5621 5621 5612 5614 4978 
4978 4977 4975 4975 4975 4973 4967 4966 4971 
4165 4291 3673 3673 4306 4294 4138 4138 3094 
3094 4302 4302 4301 4302 4301 4301 4199 4199 
4202 2971 2971 3740 3740 4182 2984 4182 4183 
4183 4233 4233 4230 4230 4312 4312 4314 4314 
2589 4262 2589 2589 4144 4144 4154 3089 4154 
4154 4150 4153 4273 4150 4272 4272 4122 4118 
4095 4095 4079 4652 4092 4079 3525 4093 4090 
4090 3498 4090 3498 3498 3530 3530 4633 4030 
4624 4030 2364 4624 3495 3495 3467 3467 5352 
5352 5351 5349 5350 5349 5350 5350 2519 4592 
3978 5192 4532 4532 4538 4538 3650 3650 5298 
5298 4678 5362 5369 5362 5369 5369 2950 2950 
2404 2950 2404 2404 5261 5261 5184 5184 4159 
4159 5226 5224 5224 5225 5225 5225 5219 5219 
5186 5186 5882 5895 5896 5896 5127 5126 5852 
5852 5833 5833 5836 5836 2806 2806 5830 5830 
5832 5831 5286 5145 5822 3092 4847 6893 4847 
5840 6329 6329 6425 6420 6420 6420 5870 6858 
4673 6858 6252 5673 2282 6252 4465 4465 7774 
7774 7776 7776 8288 8288 8282 8290 7690 7690 
8223 8223 8240 8240 8248 8249 8248 8248 8247 
8244 7652 8244 7667 7667 7668 7229 7230 7218 
7231 6766 7222 7231 7222 7222 7151 7225 7203 
7203 7621 6230 7617 7617 6715 6715 7191 7191 
7187 7187 7174 7174 7172 7172 7162 7162 7160 
7162 7160 7160 6491 6491 5770 3106 3955 3106 
7302 7301 7301 7303 6357 6357 7256 7324 7289 
7335 7338 7289 7290 7339 7333 7295 7294 7295 
7293 7293 7274 7274 7758 7316 6358 7316 6289 
6358 6871 6871 7398 7398 7780 7397 7784 7870 
7868 7403 7403 7401 7882 7882 7866 7866 8402 
8389 8389 8379 6370 6370 7889 6374 6883 6883 
8427 8427 8406 8406 8442 7425 8733 8729 8730 
8729 6258 8317 5528 5528 8782 8787 8783 8783 
8765 8765 3664 8767 8822 8822 8754 8754 9145 
9156 9152 9152 2287 9150 7846 2287 9226 9226 
9234 9226 9234 9234 9233 9235 9227 9227 9219 
9180 5664 7467 9175 5664 9829 9175 9829 9795 
10498 10498 10535 10535 10537 10537 10565 10565 10567 
10565 10567 10567 10573 10573 10577 9639 9639 9639 
7917 9841 9927 9633 10563 9298 9541 9541 10513 
10513 8478 10512 10496 10496 10470 9870 9942 9870 
9942 9942 9113 9113 11111 9113 11111 11111 11100 
9896 10610 10610 10452 10452 10595 10595 11102 11102 
11107 11105 11107 11107 11085 11108 11085 10490 11084 
10490 10473 9878 9269 9269 10465 10465 10464 10462 
9808 10462 10455 10455 8124 9097 9530 9530 10429 
9530 10429 10429 10440 10440 9771 9771 10408 10408 
10414 10415 10415 10410 10305 9702 10306 9494 9736 
10306 9736 9718 9718 10389 10390 10390 10378 10376 
9747 10376 9747 9747 9726 9726 9724 9724 9722 
9045 9681 9681 9713 9713 9691 9691 9690 9689 
9656 9656 9653 9653 9034 9652 9665 9665 9662 
9646 9605 9016 9608 9605 9608 9609 9626 9626 
9627 9625 8692 8692 9010 9010 9513 9513 8664 
9005 9509 9509 9598 9599 9596 9601 8287 9601 
8287 8287 8669 8669 6846 8644 8653 8653 7228 
7228 8164 8164 8053 8116 8116 8153 8129 8156 
8129 8103 8130 8103 7619 8130 7619 7836 8099 
8099 7574 8076 7579 8075 8078 8078 8080 8080 
7153 7153 7190 7190 7155 7157 7173 7174 7177 
7172 7162 7162 7160 7162 7160 7160 14219 14219 
12884 14221 13840 14221 14218 14217 14252 14252 14260 
14260 14268 14268 14222 14222 14282 14282 14276 14281 
14281 14281 14664 14660 14659 14663 14659 14659 14652 
14310 14652 14642 15193 15206 15206 15185 14679 14679 
14845 14845 15231 14845 15231 15231 14671 14671 14678 
14678 14398 14398 15264 15264 14739 14739 15313 15313 
15334 15334 15337 15332 15326 14805 15787 15783 14455 
15787 14455 15400 14991 15370 15372 15370 15372 15372 
15780 15780 15376 14896 15742 15860 16228 15865 15472 
15472 16307 16307 16261 16307 16261 16261 15457 16261 
15457 15457 16265 16372 16372 16372 16369 16371 15424 
15424 16255 15424 16255 16255 16256 16255 16256 16256 
15497 16256 15497 15497 15804 15975 15804 16325 16325 
16326 16326 16305 16305 16305 16565 16563 16253 16562 
16253 16253 15473 16253 15473 15473 16554 16682 16682 
16682 16697 16694 16697 16696 16697 16697 15773 16697 
15773 15773 16585 15773 16585 16585 16706 15432 16599 
16709 16709 16709 16710 16709 16710 16710 16601 16601 
16429 16429 15966 15966 11275 11275 14493 16616 15556 
16616 16615 16728 16678 16619 16575 15586 16617 16352 
16309 16309 16281 16573 14142 14142 15978 15978 16389 
16389 16395 16389 16395 16395 15955 15955 16277 16277 
16273 15963 16271 16273 14868 14868 14887 14816 14968 
14921 14970 14970 14820 13997 14284 14785 14452 14541 
12859 12654 12654 14631 14767 14356 13871 14356 13806 
13806 14352 14352 13908 13908 13419 13419 11957 13338 
13335 13335 12531 13335 12531 12531 12512 12512 12341 
12512 12341 12341 5731 5731 9118 9118 12453 11910 
12424 5716 12434 12434 7250 12436 12437 12436 12437 
12432 10597 10597 11073 12407 12418 12407 10469 10469 
9910 11194 11769 11768 7386 11758 9290 7386 11115 
9290 10492 11051 10529 10529 10473 10473 9269 9269 
10465 10465 10464 10462 9808 10462 10455 10455 8124 
9097 9530 9530 10429 9530 10429 10429 10440 10440 
9771 9771 10408 10408 10414 10415 10415 10410 10305 
9702 10306 9494 9736 10306 9736 9718 9718 10389 
10390 10390 10378 10376 9747 10376 9747 9747 9726 
9726 9724 9724 9722 9045 9681 9681 9713 9713 
9691 9691 9690 9689 9656 9656 9653 9653 9034 
9652 9665 9665 9662 9646 9605 9016 9608 9605 
9608 9609 9626 9626 9627 9625 8692 8692 9010 
9010 9513 9513 8664 9005 9509 9509 9598 9599 
9596 9601 8287 9601 8287 8287 8669 8669 6846 
8644 8653 8653 7228 7228 8164 8164 8053 8116 
8116 8153 8129 8156 8129 8103 8130 8103 7619 
8130 7619 7836 8099 8099 7574 8076 7579 8075 
8078 8078 8080 8080 7153 7153 7190 7190 7155 
7157 7173 7174 7177 7172 7162 7162 7160 7162 
7160 7160 11663 11663 11667 11666 11669 11669 11657 
9037 11660 11660 11639 11639 11533 11533 11616 11614 
12147 10950 12147 12145 12144 12144 11605 11605 11586 
11581 11588 11588 12158 12126 12195 12195 11575 12194 
12150 11576 11570 11570 12151 11521 12151 12151 12116 
12116 12181 12183 12182 12183 12184 12121 11431 12105 
11497 12111 11001 11526 11526 11526 11497 11559 11559 
11559 11557 12103 12171 11558 12170 12172 12170 12170 
10951 12168 11599 12087 9469 12796 12801 12079 12078 
12074 12074 10750 12699 12699 12702 12699 12702 12702 
12701 12701 12758 12757 12759 12759 12762 12759 12762 
12762 13171 13172 13171 13171 12498 12498 12763 12763 
12745 13177 13208 13208 13176 13207 13176 13205 13184 
12731 12733 13183 13602 12570 13603 13603 13606 13606 
13188 13187 12949 13552 13552 13749 13759 13759 12130 
12130 13158 13747 13735 13735 13062 13062 13535 14178 
13724 13728 13728 13634 13386 12005 14038 12005 14038 
11021 14091 11021 13631 14091 13631 12895 14059 14509 
13393 14509 15074 13393 15155 15154 15155 15157 15157 
15157 15097 15157 15097 15097 15137 14143 13941 15179 
15132 15701 15132 15700 15700 15700 15703 15703 15166 
15166 16629 16634 16628 16628 16512 16510 16511 16510 
15868 16511 16167 16167 15900 16074 16483 16479 16482 
16483 16482 16481 16482 14985 15989 15989 15557 15557 
16389 16389 16395 16389 16395 16395 15955 15955 16277 
16277 16273 15963 16271 16273 14868 14868 14887 14816 
14968 14921 14970 14970 14820 13997 14284 14785 14452 
14541 12859 12654 12654 14631 14767 14356 13871 14356 
13806 13806 14352 14352 13908 13908 13419 13419 11957 
13338 13335 13335 12531 13335 12531 12531 12512 12512 
12341 12512 12341 12341 5731 5731 9118 9118 12453 
11910 12424 5716 12434 12434 7250 12436 12437 12436 
12437 12432 10597 10597 11073 12407 12418 12407 10469 
10469 9910 11194 11769 11768 7386 11758 9290 7386 
11115 9290 10492 11051 10529 10529 10473 10473 9269 
9269 10465 10465 10464 10462 9808 10462 10455 10455 
8124 9097 9530 9530 10429 9530 10429 10429 10440 
10440 9771 9771 10408 10408 10414 10415 10415 10410 
10305 9702 10306 9494 9736 10306 9736 9718 9718 
10389 10390 10390 10378 10376 9747 10376 9747 9747 
9726 9726 9724 9724 9722 9045 9681 9681 9713 
9713 9691 9691 9690 9689 9656 9656 9653 9653 
9034 9652 9665 9665 9662 9646 9605 9016 9608 
9605 9608 9609 9626 9626 9627 9625 8692 8692 
9010 9010 9513 9513 8664 9005 9509 9509 9598 
9599 9596 9601 8287 9601 8287 8287 8669 8669 
6846 8644 8653 8653 7228 7228 8164 8164 8053 
8116 8116 8153 8129 8156 8129 8103 8130 8103 
7619 8130 7619 7836 8099 8099 7574 8076 7579 
8075 8078 8078 8080 8080 7153 7153 7190 7190 
7155 7157 7173 7174 7177 7172 7162 7162 7160 
7162 7160 7160 136 136 137 136 137 137 
128 137 128 128 170 128 170 170 169 
172 172 172 106 173 181 106 181 255 
255 255 180 254 180 250 250 250 251 
182 186 186 155 155 264 264 297 297 
302 302 280 280 371 371 395 395 361 
361 383 383 419 419 454 454 391 391 
468 468 501 501 500 500 504 504 528 
528 524 283 486 482 277 478 522 478 
447 545 598 598 637 612 594 594 577 
577 646 646 693 693 695 693 695 695 
673 673 640 380 747 640 747 749 763 
763 775 775 670 670 861 861 872 810 
690 875 875 877 878 878 1024 1024 984 
930 976 688 1240 1240 993 993 1239 993 
1239 1239 1690 1690 1103 2236 2236 1043 2193 
2193 3858 3858 3867 3867 2691 3354 2691 3781 
3226 3226 1127 1127 4389 4389 4382 4382 5008 
5009 5012 5012 3359 3083 3749 3749 5024 5024 
5028 5028 4362 3263 2700 2700 4354 2700 4354 
4354 4702 4702 4979 4979 3938 3779 5695 5695 
6574 6574 6573 6575 6573 6563 6563 6632 6632 
6633 6633 6633 6119 6634 6998 6119 7005 6625 
943 4376 943 7043 7043 7045 7470 7471 7474 
7475 7474 7476 7407 7407 7986 7987 7995 7995 
7537 7997 4767 7439 7439 8549 8548 8548 7511 
8511 7058 7058 8493 8493 7538 7538 8901 8901 
8902 8813 8576 8576 8024 7063 8893 7063 9387 
9384 9383 9389 9390 9389 9391 9390 9308 9308 
9338 9338 9399 9399 9398 9304 7502 7502 9426 
9426 9430 9430 10607 11297 8568 10607 10891 8568 
10773 10800 10778 10778 11464 11464 11462 11978 12069 
11436 11261 12065 11292 11292 12045 12599 12687 12045 
12687 12687 13761 13761 13762 13760 13762 13762 13747 
13747 13735 13735 13062 13062 13535 14178 13724 13728 
13728 13634 13386 12005 14038 12005 14038 11021 14091 
11021 13631 14091 13631 12895 14059 14509 13393 14509 
15074 13393 15155 15154 15155 15157 15157 15157 15097 
15157 15097 15097 15137 14143 13941 15179 15132 15701 
15132 15700 15700 15700 15703 15703 15166 15166 16629 
16634 16628 16628 16512 16510 16511 16510 15868 16511 
16167 16167 15900 16074 16483 16479 16482 16483 16482 
16481 16482 14985 15989 15989 15557 15557 16389 16389 
16395 16389 16395 16395 15955 15955 16277 16277 16273 
15963 16271 16273 14868 14868 14887 14816 14968 14921 
14970 14970 14820 13997 14284 14785 14452 14541 12859 
12654 12654 14631 14767 14356 13871 14356 13806 13806 
14352 14352 13908 13908 13419 13419 11957 13338 13335 
13335 12531 13335 12531 12531 12512 12512 12341 12512 
12341 12341 5731 5731 9118 9118 12453 11910 12424 
5716 12434 12434 7250 12436 12437 12436 12437 12432 
10597 10597 11073 12407 12418 12407 10469 10469 9910 
11194 11769 11768 7386 11758 9290 7386 11115 9290 
10492 11051 10529 10529 10473 10473 9269 9269 10465 
10465 10464 10462 9808 10462 10455 10455 8124 9097 
9530 9530 10429 9530 10429 10429 10440 10440 9771 
9771 10408 10408 10414 10415 10415 10410 10305 9702 
10306 9494 9736 10306 9736 9718 9718 10389 10390 
10390 10378 10376 9747 10376 9747 9747 9726 9726 
9724 9724 9722 9045 9681 9681 9713 9713 9691 
9691 9690 9689 9656 9656 9653 9653 9034 9652 
9665 9665 9662 9646 9605 9016 9608 9605 9608 
9609 9626 9626 9627 9625 8692 8692 9010 9010 
9513 9513 8664 9005 9509 9509 9598 9599 9596 
9601 8287 9601 8287 8287 8669 8669 6846 8644 
8653 8653 7228 7228 8164 8164 8053 8116 8116 
8153 8129 8156 8129 8103 8130 8103 7619 8130 
7619 7836 8099 8099 7574 8076 7579 8075 8078 
8078 8080 8080 7153 7153 7190 7190 7155 7157 
7173 7174 7177 7172 7162 7162 7160 7162 7160 
7160 3187 3187 2648 2648 3168 3185 3168 2647 
2733 2733 2730 2735 2736 2731 2721 2721 2720 
2721 2720 2720 2656 2656 2747 2116 2739 2746 
2191 2191 2686 2191 2686 2686 2195 2195 2756 
2756 2763 2769 2668 2770 2764 2764 2762 2689 
2697 2697 2209 2209 2210 2219 2210 1212 1212 
2142 2140 2140 2206 2206 2225 2225 2228 2228 
2212 2212 2788 3222 3218 3222 3218 3221 3259 
3259 3176 2665 3344 3329 3857 1050 3858 3857 
3855 3855 3781 3781 2190 3226 4350 4350 4349 
4388 4389 4389 4382 4382 5008 5009 5012 5012 
3359 3083 3749 3749 5024 5024 5028 5028 4362 
3263 2700 2700 4354 2700 4354 4354 4702 4702 
4979 4979 3938 3779 5695 5695 6574 6574 6573 
6575 6573 6563 6563 6632 6632 6633 6633 6633 
6119 6634 6998 6119 7005 6625 943 4376 943 
7043 7043 7045 7470 7471 7474 7475 7474 7476 
7407 7407 7986 7987 7995 7995 7537 7997 4767 
7439 7439 8549 8548 8548 7511 8511 7058 7058 
8493 8493 7538 7538 8901 8901 8902 8813 8576 
8576 8024 7063 8893 7063 9387 9384 9383 9389 
9390 9389 9391 9390 9308 9308 9338 9338 9399 
9399 9398 9304 7502 7502 9426 9426 9430 9430 
10607 11297 8568 10607 10891 8568 10773 10800 10778 
10778 11464 11464 11462 11978 12069 11436 11261 12065 
11292 11292 12045 12599 12687 12045 12687 12687 13761 
13761 13762 13760 13762 13762 13747 13747 13735 13735 
13062 13062 13535 14178 13724 13728 13728 13634 13386 
12005 14038 12005 14038 11021 14091 11021 13631 14091 
13631 12895 14059 14509 13393 14509 15074 13393 15155 
15154 15155 15157 15157 15157 15097 15157 15097 15097 
15137 14143 13941 15179 15132 15701 15132 15700 15700 
15700 15703 15703 15166 15166 16629 16634 16628 16628 
16512 16510 16511 16510 15868 16511 16167 16167 15900 
16074 16483 16479 16482 16483 16482 16481 16482 14985 
15989 15989 15557 15557 16389 16389 16395 16389 16395 
16395 15955 15955 16277 16277 16273 15963 16271 16273 
14868 14868 14887 14816 14968 14921 14970 14970 14820 
13997 14284 14785 14452 14541 12859 12654 12654 14631 
14767 14356 13871 14356 13806 13806 14352 14352 13908 
13908 13419 13419 11957 13338 13335 13335 12531 13335 
12531 12531 12512 12512 12341 12512 12341 12341 5731 
5731 9118 9118 12453 11910 12424 5716 12434 12434 
7250 12436 12437 12436 12437 12432 10597 10597 11073 
12407 12418 12407 10469 10469 9910 11194 11769 11768 
7386 11758 9290 7386 11115 9290 10492 11051 10529 
10529 10473 10473 9269 9269 10465 10465 10464 10462 
9808 10462 10455 10455 8124 9097 9530 9530 10429 
9530 10429 10429 10440 10440 9771 9771 10408 10408 
10414 10415 10415 10410 10305 9702 10306 9494 9736 
10306 9736 9718 9718 10389 10390 10390 10378 10376 
9747 10376 9747 9747 9726 9726 9724 9724 9722 
9045 9681 9681 9713 9713 9691 9691 9690 9689 
9656 9656 9653 9653 9034 9652 9665 9665 9662 
9646 9605 9016 9608 9605 9608 9609 9626 9626 
9627 9625 8692 8692 9010 9010 9513 9513 8664 
9005 9509 9509 9598 9599 9596 9601 8287 9601 
8287 8287 8669 8669 6846 8644 8653 8653 7228 
7228 8164 8164 8053 8116 8116 8153 8129 8156 
8129 8103 8130 8103 7619 8130 7619 7836 8099 
8099 7574 8076 7579 8075 8078 8078 8080 8080 
7153 7153 7190 7190 7155 7157 7173 7174 7177 
7172 7162 7162 7160 7162 7160 7160 1847 1847 
2859 3549 2279 3551 2279 4065 4066 4065 4046 
2863 4046 3545 3545 4041 4047 4087 3373 4047 
3373 2205 2205 2205 4581 4581 3959 5279 3959 
5277 3903 3903 5166 3903 5166 5166 5129 5129 
2878 2878 5890 5890 5897 5897 5127 5126 5852 
5852 5833 5833 5836 5836 2806 2806 5830 5830 
5832 5831 5286 5145 5822 3092 4847 6893 4847 
5840 6329 6329 6425 6420 6420 6420 5870 6858 
4673 6858 6252 5673 2282 6252 4465 4465 7774 
7774 7776 7776 8288 8288 8282 8290 7690 7690 
8223 8223 8240 8240 8248 8249 8248 8248 8247 
8244 7652 8244 7667 7667 7668 7229 7230 7218 
7231 6766 7222 7231 7222 7222 7151 7225 7203 
7203 7621 6230 7617 7617 6715 6715 7191 7191 
7187 7187 7174 7174 7172 7172 7162 7162 7160 
7162 7160 7160 
EdgePCoordArray 1 1563 double
0 0.992 0 0.012 0.66 0.384 0 0.832 0.444 
0.684 0.76 0.972 0.736 0.756 0.684 0.276 0.46 0 
0 0.472 0.228 0 0.612 0.872 0.204 0 0 
0 0.984 0 0.028 0 0 0.996 0 0.86 
0 0.056 0 0 0.008 0.196 0.424 0.984 0.968 
0 0 0.996 0 0 0.96 0.912 0.916 0 
0 0 0.244 0.436 0 0.896 0.144 0 0 
0 0 0.928 0.796 0 0 0.992 0 0 
0 0 0.96 0.028 0 0 0 0.016 0 
0.996 0 0 0 0 0 0.448 0.076 0.6 
0.436 0.552 0 0.292 0 0.68 0.844 0.06 0.92 
0 0 0 0 0.696 0 0 0 0.328 
0 0.988 0.992 0 0.016 0.376 0.736 0.004 0 
0.22 0 0.26 0 0 0 0 0 0 
0 0.988 0 0 0 0 0.02 0.524 0.56 
0 0.708 0.468 0.816 0 0.992 0 0.816 0 
0.804 0 0.34 0.364 0.048 0.552 0.076 0 0.048 
0.996 0 0.996 0 0.992 0 0 0 0.064 
0 0.976 0 0.08 0 0.86 0 0.472 0.728 
0.252 0 0.212 0 0 0 0.996 0 0 
0.964 0.052 0.6 0.344 0 0 0 0 0 
0.82 0 0 0.156 0 0.688 0.968 0 0.16 
0 0.376 0.94 0.016 0 0.996 0 0 0.96 
0.912 0.916 0 0 0 0.244 0.436 0 0.896 
0.144 0 0 0 0 0.928 0.796 0 0 
0.992 0 0 0 0 0.96 0.028 0 0 
0 0.016 0 0.996 0 0 0 0 0 
0.448 0.076 0.6 0.436 0.552 0 0.292 0 0.68 
0.844 0.06 0.92 0 0 0 0 0.696 0 
0 0 0.328 0 0.988 0.992 0 0.016 0.376 
0.736 0.004 0 0.22 0 0.26 0 0 0 
0 0 0 0 0.988 0 0 0.844 0.772 
0.964 0.096 0 0.9 0.376 0.592 0.396 0.9 0.812 
0 0 0.936 0.832 0.776 0 0 0.792 0.224 
0.976 0.068 0 0 0.776 0.368 0 0.996 0 
0 0 0.916 0.98 0.976 0.22 0 0.084 0 
0 0.992 0 0 0.036 0 0.664 0.892 0 
0.996 0 0.22 0 0.984 0.928 0.144 0.58 0.016 
0 0 0 0 0.976 0 0 0.64 0 
0.024 0.648 0.7 0 0 0.86 0 0.128 0.836 
0 0 0.98 0 0.996 0 0 0 0 
0.076 0 0.976 0.164 0.016 0.216 0 0 0.872 
0.96 0 0.78 0 0.992 0 0 0 0 
0.864 0.032 0.508 0.184 0.532 0.724 0.036 0 0.936 
0.728 0 0 0 0.212 0 0 0 0.06 
0 0 0.96 0 0.612 0.008 0.952 0.212 0 
0.004 0 0 0 0.86 0 0.86 0.956 0.92 
0 0 0.064 0 0 0 0.92 0.104 0.172 
0.54 0.528 0.972 0.752 0 0.132 0.88 0 0 
0 0 0.7 0.696 0.868 0 0.988 0 0 
0.268 0.488 0.572 0 0 0 0 0 0.492 
0 0.292 0.368 0 0.976 0.044 0.632 0.128 0 
0 0.996 0 0 0 0 0 0 0 
0 0.484 0.7 0.228 0.376 0.016 0.332 0.24 0 
0 0.02 0.26 0.88 0 0 0.988 0 0.992 
0 0.364 0 0.904 0 0.992 0 0.984 0 
0.988 0 0.076 0.144 0.192 0.008 0 0.544 0.636 
0 0.984 0 0.008 0 0.864 0.372 0 0.992 
0 0.984 0 0.672 0.7 0 0.984 0 0 
0 0 0 0.644 0.932 0.136 0.276 0.24 0.644 
0 0.852 0 0 0 0.996 0 0 0 
0.12 0.896 0 0.108 0.412 0 0.928 0.024 0.468 
0.956 0.044 0.856 0.764 0 0 0 0 0.488 
0 0.996 0 0 0.996 0 0 0 0.244 
0.796 0 0.908 0.908 0.012 0 0.888 0.96 0 
0.304 0.404 0.056 0.776 0.836 0.244 0 0 0 
0 0.872 0.96 0 0.78 0 0.992 0 0 
0 0 0.864 0.032 0.508 0.184 0.532 0.724 0.036 
0 0.936 0.728 0 0 0 0.212 0 0 
0 0.06 0 0 0.96 0 0.612 0.008 0.952 
0.212 0 0.004 0 0 0 0.86 0 0.86 
0.956 0.92 0 0 0.064 0 0 0 0.92 
0.104 0.172 0.54 0.528 0.972 0.752 0 0.132 0.88 
0 0 0 0 0.7 0.696 0.868 0 0.988 
0 0 0.58 0 0.16 0 0 0 0.056 
0.26 0.864 0 0 0.012 0 0.504 0 0.664 
0.96 0 0.832 0 0 0.096 0.992 0.552 0.2 
0.948 0.732 0 0.64 0 0.192 0.836 0.2 0 
0.912 0.308 0.668 0.544 0.668 0.488 0 0.996 0 
0 0.984 0 0.988 0 0.536 0 0 0 
0.804 0 0.724 0.016 0.3 0.736 0.824 0 0 
0.436 0.892 0.196 0 0 0.744 0 0 0.068 
0.408 0.68 0.952 0.88 0.568 0.412 0.796 0.536 0.996 
0.968 0.752 0.084 0.272 0 0.996 0 0.984 0.156 
0.016 0.032 0 0 0 0.696 0 0.932 0.752 
0.944 0 0.268 0.232 0.308 0.012 0.008 0 0 
0 0.996 0 0 0 0.12 0.896 0 0.108 
0.412 0 0.928 0.024 0.468 0.956 0.044 0.856 0.764 
0 0 0 0 0.488 0 0.996 0 0 
0.996 0 0 0 0.244 0.796 0 0.908 0.908 
0.012 0 0.888 0.96 0 0.304 0.404 0.056 0.776 
0.836 0.244 0 0 0 0 0.872 0.96 0 
0.78 0 0.992 0 0 0 0 0.864 0.032 
0.508 0.184 0.532 0.724 0.036 0 0.936 0.728 0 
0 0 0.212 0 0 0 0.06 0 0 
0.96 0 0.612 0.008 0.952 0.212 0 0.004 0 
0 0 0.86 0 0.86 0.956 0.92 0 0 
0.064 0 0 0 0.92 0.104 0.172 0.54 0.528 
0.972 0.752 0 0.132 0.88 0 0 0 0 
0.7 0.696 0.868 0 0.988 0 0 0.996 0 
0.98 0 0.996 0 0.036 0 0.952 0.072 0.012 
0 0.932 0.124 0 0.064 0 0 0 0 
0 0 0 0 0 0 0 0 0 
0 0 0 0 0 0.452 0.972 0.976 0.968 
0.124 0 0.532 0 0 0 0 0.976 0 
0 0.224 0.32 0.936 0 0 0 0 0.644 
0.908 0.068 0 0 0.94 0.728 0 0 0.996 
0 0 0.88 0.096 0 0 0 0.436 0.16 
0 0 0 0 0.08 0 0.148 0 0 
0 0.436 0 0.988 0 0 0 0.072 0 
0 0.684 0.568 0.74 0.016 0 0.56 0.86 0.404 
0.008 0.252 0.024 0.252 0.084 0.124 0 0.84 0 
0.94 0.108 0.612 0 0.992 0 0 0 0 
0.112 0 0.772 0.62 0.572 0.872 0.62 0.976 0 
0 0 0.008 0 0 0 0.112 0.848 0.368 
0.612 0 0 0.544 0.524 0.792 0 0.772 0.832 
0 0 0.548 0 0 0 0 0.068 0.408 
0.68 0.952 0.88 0.568 0.412 0.796 0.536 0.996 0.968 
0.752 0.084 0.272 0 0.996 0 0.984 0.156 0.016 
0.032 0 0 0 0.696 0 0.932 0.752 0.944 
0 0.268 0.232 0.308 0.012 0.008 0 0 0 
0.996 0 0 0 0.12 0.896 0 0.108 0.412 
0 0.928 0.024 0.468 0.956 0.044 0.856 0.764 0 
0 0 0 0.488 0 0.996 0 0 0.996 
0 0 0 0.244 0.796 0 0.908 0.908 0.012 
0 0.888 0.96 0 0.304 0.404 0.056 0.776 0.836 
0.244 0 0 0 0 0.872 0.96 0 0.78 
0 0.992 0 0 0 0 0.864 0.032 0.508 
0.184 0.532 0.724 0.036 0 0.936 0.728 0 0 
0 0.212 0 0 0 0.06 0 0 0.96 
0 0.612 0.008 0.952 0.212 0 0.004 0 0 
0 0.86 0 0.86 0.956 0.92 0 0 0.064 
0 0 0 0.92 0.104 0.172 0.54 0.528 0.972 
0.752 0 0.132 0.88 0 0 0 0 0.7 
0.696 0.868 0 0.988 0 0 0 0.512 0.192 
0 0.972 0.104 0 0.996 0 0 0.472 0.692 
0 0.996 0 0 0 0.592 0.484 0 0.064 
0 0 0.628 0.584 0.22 0 0 0 0 
0 0.944 0.888 0.588 0 0.476 0.488 0.268 0.532 
0 0 0.156 0 0.276 0 0 0.08 0 
0.148 0 0 0 0.436 0 0.988 0 0 
0 0.072 0 0 0.684 0.568 0.74 0.016 0 
0.56 0.86 0.404 0.008 0.252 0.024 0.252 0.084 0.124 
0 0.84 0 0.94 0.108 0.612 0 0.992 0 
0 0 0 0.112 0 0.772 0.62 0.572 0.872 
0.62 0.976 0 0 0 0.008 0 0 0 
0.112 0.848 0.368 0.612 0 0 0.544 0.524 0.792 
0 0.772 0.832 0 0 0.548 0 0 0 
0 0.068 0.408 0.68 0.952 0.88 0.568 0.412 0.796 
0.536 0.996 0.968 0.752 0.084 0.272 0 0.996 0 
0.984 0.156 0.016 0.032 0 0 0 0.696 0 
0.932 0.752 0.944 0 0.268 0.232 0.308 0.012 0.008 
0 0 0 0.996 0 0 0 0.12 0.896 
0 0.108 0.412 0 0.928 0.024 0.468 0.956 0.044 
0.856 0.764 0 0 0 0 0.488 0 0.996 
0 0 0.996 0 0 0 0.244 0.796 0 
0.908 0.908 0.012 0 0.888 0.96 0 0.304 0.404 
0.056 0.776 0.836 0.244 0 0 0 0 0.872 
0.96 0 0.78 0 0.992 0 0 0 0 
0.864 0.032 0.508 0.184 0.532 0.724 0.036 0 0.936 
0.728 0 0 0 0.212 0 0 0 0.06 
0 0 0.96 0 0.612 0.008 0.952 0.212 0 
0.004 0 0 0 0.86 0 0.86 0.956 0.92 
0 0 0.064 0 0 0 0.92 0.104 0.172 
0.54 0.528 0.972 0.752 0 0.132 0.88 0 0 
0 0 0.7 0.696 0.868 0 0.988 0 0 
0.236 0.112 0.708 0.976 0.248 0.556 0.008 0.56 0.092 
0.116 0 0 0.86 0.848 0 0.996 0 0 
0 0 0 0.792 0 0 0 0 0 
0.448 0.076 0.6 0.436 0.552 0 0.292 0 0.68 
0.844 0.06 0.92 0 0 0 0 0.696 0 
0 0 0.328 0 0.988 0.992 0 0.016 0.376 
0.736 0.004 0 0.22 0 0.26 0 0 0 
0 0 0 0 0.988 0 
